<?xml version="1.0" encoding="UTF-8"?>
<svg enable-background="new 0 0 412.3 388.1" version="1.1" viewBox="0 0 412.3 388.1" xml:space="preserve" xmlns="http://www.w3.org/2000/svg" xmlns:xlink="http://www.w3.org/1999/xlink">
<style type="text/css">
	.st0{fill:url(#cc);}
	.st1{fill:url(#br);}
	.st2{fill:url(#bg);}
	.st3{fill:url(#av);}
	.st4{fill:#343535;}
	.st5{fill:#242525;}
	.st6{fill:none;}
	.st7{opacity:0.5;fill:#3BAAD9;enable-background:new    ;}
	.st8{fill:#C5D3E0;}
	.st9{fill:#EDF6FF;}
	.st10{fill:#AEBECF;}
	.st11{fill:#D3DBE3;}
	.st12{fill:#DBE4EC;}
	.st13{fill:#C0C8CF;}
	.st14{fill:#464646;}
	.st15{enable-background:new    ;}
	.st16{fill:#363636;}
	.st17{fill:#818182;}
	.st18{fill:#3B3B3B;}
	.st19{fill:#1168E0;}
	.st20{fill:#236696;}
	.st21{fill:#282827;}
	.st22{fill:url(#ak);}
	.st23{fill:url(#z);}
	.st24{fill:#1276E9;}
	.st25{fill:url(#o);}
	.st26{fill:#F7F7F7;}
	.st27{fill:#FFFFFF;}
	.st28{fill:#393939;}
	.st29{fill:#1C1C1C;}
	.st30{fill:#FFE8D9;}
	.st31{fill:url(#d);}
	.st32{fill:url(#a);}
	.st33{fill:url(#cm);}
	.st34{fill:url(#cl);}
	.st35{fill:url(#ck);}
	.st36{fill:#B6C7D9;}
	.st37{fill:#F4F7F9;}
	.st38{fill:url(#cj);}
	.st39{fill:url(#ci);}
	.st40{fill:url(#ch);}
	.st41{fill:none;stroke:#FFFFFF;stroke-width:3;stroke-miterlimit:10;}
	.st42{fill:#EDEDED;}
	.st43{fill:url(#cg);}
	.st44{fill:#C9F9FF;}
	.st45{fill:#36D7F2;}
	.st46{clip-path:url(#ce);enable-background:new    ;}
	.st47{fill:#8E8A8B;}
	.st48{fill:url(#cd);}
	.st49{fill:#FFE1CC;}
	.st50{fill:url(#cb);}
	.st51{fill:url(#ca);}
	.st52{fill:url(#bz);}
	.st53{fill:url(#by);}
	.st54{opacity:0.5;fill:#604BE0;enable-background:new    ;}
	.st55{fill:url(#bx);}
	.st56{fill:url(#bw);}
	.st57{fill:url(#bv);}
	.st58{fill:url(#bu);}
	.st59{fill:url(#bt);}
	.st60{fill:url(#bs);}
	.st61{fill:url(#bq);}
	.st62{fill:url(#bp);}
	.st63{fill:url(#bo);}
	.st64{fill:#8FECFF;}
	.st65{fill:url(#bn);}
	.st66{fill:url(#bm);}
	.st67{fill:url(#bl);}
	.st68{fill:url(#bk);}
	.st69{fill:url(#bj);}
	.st70{fill:url(#bi);}
	.st71{fill:url(#bh);}
	.st72{fill:url(#bf);}
	.st73{fill:url(#be);}
	.st74{fill:url(#bd);}
	.st75{fill:url(#bc);}
	.st76{fill:url(#bb);}
	.st77{fill:url(#ba);}
	.st78{fill:url(#az);}
	.st79{fill:url(#ay);}
	.st80{fill:url(#ax);}
	.st81{fill:url(#aw);}
	.st82{clip-path:url(#at);enable-background:new    ;}
	.st83{fill:#B3E5FF;}
	.st84{fill:#ADE4FF;}
	.st85{fill:#A8E2FF;}
	.st86{fill:#A3E0FF;}
	.st87{fill:#9EDFFF;}
	.st88{fill:#99DDFF;}
	.st89{fill:#94DBFF;}
	.st90{fill:#8FDAFF;}
	.st91{fill:#8AD8FF;}
	.st92{fill:#85D6FF;}
	.st93{fill:#C5ECFF;}
	.st94{clip-path:url(#ar);enable-background:new    ;}
	.st95{fill:#B8E7FF;}
	.st96{fill:#BDE9FF;}
	.st97{fill:#C2EBFF;}
	.st98{fill:#C7ECFF;}
	.st99{fill:#CCEEFF;}
	.st100{clip-path:url(#ap);enable-background:new    ;}
	.st101{fill:#D1F0FF;}
	.st102{fill:#D6F1FF;}
	.st103{fill:#DBF3FF;}
	.st104{fill:#E0F5FF;}
	.st105{fill:#E6F7FF;}
	.st106{fill:#EBF8FF;}
	.st107{fill:#F0FAFF;}
	.st108{fill:#F5FCFF;}
	.st109{fill:#FAFDFF;}
	.st110{fill:#89D8FF;}
	.st111{clip-path:url(#an);enable-background:new    ;}
	.st112{clip-path:url(#al);enable-background:new    ;}
	.st113{clip-path:url(#ai);enable-background:new    ;}
	.st114{clip-path:url(#ag);enable-background:new    ;}
	.st115{clip-path:url(#ae);enable-background:new    ;}
	.st116{clip-path:url(#ac);enable-background:new    ;}
	.st117{clip-path:url(#aa);enable-background:new    ;}
	.st118{clip-path:url(#x);enable-background:new    ;}
	.st119{clip-path:url(#v);enable-background:new    ;}
	.st120{clip-path:url(#t);enable-background:new    ;}
	.st121{clip-path:url(#r);enable-background:new    ;}
	.st122{clip-path:url(#p);enable-background:new    ;}
	.st123{clip-path:url(#m);enable-background:new    ;}
	.st124{clip-path:url(#k);enable-background:new    ;}
	.st125{clip-path:url(#i);enable-background:new    ;}
	.st126{clip-path:url(#g);enable-background:new    ;}
	.st127{clip-path:url(#e);enable-background:new    ;}
	.st128{clip-path:url(#b);enable-background:new    ;}
</style>
		<linearGradient id="cc" x1="389.33" x2="377.08" y1="515.7" y2="468.22" gradientTransform="translate(0 -343.51)" gradientUnits="userSpaceOnUse">
		<stop stop-color="#12C2E9" offset="0"/>
		<stop stop-color="#7D1EDC" offset="1"/>
	</linearGradient>
	<polygon class="st0" points="364.5 118.1 388.3 151.7 392.1 140.8 388.3 132.1"/>
		<linearGradient id="br" x1="374.64" x2="381.53" y1="427.99" y2="465.89" gradientTransform="translate(0 -343.51)" gradientUnits="userSpaceOnUse">
		<stop stop-color="#12C2E9" offset="0"/>
		<stop stop-color="#7D1EDC" offset="1"/>
	</linearGradient>
	<polygon class="st1" points="388.3 127.1 392.1 108.1 388.3 73.4 364.2 113.3"/>
		<linearGradient id="bg" x1="407.37" x2="390.9" y1="445.79" y2="497.86" gradientTransform="translate(0 -343.51)" gradientUnits="userSpaceOnUse">
		<stop stop-color="#1184D6" offset="0"/>
		<stop stop-color="#7C16A1" offset="1"/>
	</linearGradient>
	<polygon class="st2" points="412 118.1 388.3 151.7 388.3 132.1"/>
		<linearGradient id="av" x1="380.98" x2="412.56" y1="440.17" y2="455.67" gradientTransform="translate(0 -343.51)" gradientUnits="userSpaceOnUse">
		<stop stop-color="#1184D6" offset="0"/>
		<stop stop-color="#7C16A1" offset="1"/>
	</linearGradient>
	<polygon class="st3" points="388.3 127.1 388.3 73.4 412.3 113.3"/>
	<polygon class="st4" points="388.3 102.4 364.2 113.3 388.3 127.1"/>
	<polygon class="st5" points="388.3 102.4 412.3 113.3 388.3 127.1"/>
	<path class="st6" d="m37.3 225.5c-3.2 1.9-7.3 1.8-10.5 0l-22.7-13.3c-2.3-1.4-2.3-4.7 0-6l61.9-35.1c3.3-1.9 7.3-1.9 10.5 0l22.9 13.2c2.3 1.4 2.3 4.7 0 6l-62.1 35.2z"/>
	<path class="st7" d="m43.1 179.4c0-0.7-0.4-1.3-1.1-1.7-0.5-0.3-1.2-0.5-1.9-0.5s-1.4 0.2-1.9 0.5l-13.2 7.6-13.1-7.6c-0.5-0.3-1.2-0.5-1.9-0.5s-1.4 0.2-1.9 0.5c-0.7 0.4-1.1 1-1.1 1.7s0.4 1.3 1.1 1.7l12.1 7-12.1 7c-0.7 0.4-1.1 1-1.1 1.7s0.4 1.3 1.1 1.7c0.5 0.3 1.2 0.5 1.9 0.5s1.4-0.2 1.9-0.5l13.1-7.5 7.6 4.2c0.5 0.3 1.2 0.5 1.9 0.5s1.4-0.2 1.9-0.5c0.7-0.4 1.1-1 1.1-1.7s-0.4-1.3-1.1-1.7l-6.5-3.5 12.1-7c0.7-0.6 1.1-1.2 1.1-1.9z"/>
			<path class="st8" d="m18.4 149.4 1.8-1v1.3c0 0.6 0.4 1.3 0.9 1.6l1.1 0.6-1.8 1.1-1.1-0.6c-0.5-0.3-0.9-1-0.9-1.6v-1.4z"/>
				<path class="st9" d="m17 148.6v1.8c0 1.2 0.8 2.6 1.8 3.1l1.6 0.9v-1.6l-1.1-0.6c-0.5-0.3-0.9-1-0.9-1.6v-1.3l-1.4-0.7z"/>
					<path class="st9" d="m35.7 193.9c0 1.3 0.9 2.8 2 3.5 1.1 0.6 2 0.1 2-1.1 0-1.3-0.9-2.8-2-3.5s-2-0.2-2 1.1z"/>
					<path class="st10" d="m37.9 191.7c0.4-0.2 0.9-0.2 1.4 0.1 1.1 0.6 2 2.2 2 3.5 0 0.6-0.2 1.1-0.6 1.3l-1.7 1c0.4-0.2 0.6-0.6 0.6-1.3 0-1.3-0.9-2.8-2-3.5-0.6-0.3-1.1-0.4-1.4-0.1l1.7-1z"/>
					<path class="st9" d="m6.5 177.1c0 1.3 0.9 2.8 2 3.5 1.1 0.6 2 0.1 2-1.1s-0.9-2.8-2-3.5-2-0.2-2 1.1z"/>
					<path class="st10" d="m8.7 174.8c0.4-0.2 0.9-0.2 1.4 0.1 1.1 0.6 2 2.2 2 3.5 0 0.6-0.2 1.1-0.6 1.3l-1.7 1c0.4-0.2 0.6-0.6 0.6-1.3 0-1.3-0.9-2.8-2-3.5-0.6-0.3-1.1-0.4-1.4-0.1l1.7-1z"/>
					<path class="st9" d="m9.7 192.4c0.6-0.3 1.1-0.4 1.4-0.1 0.1 0.1 0.3 0.2 0.4 0.3l0.6 0.3c0.2 0.1 0.4 0.3 0.7 0.4-0.4-0.2-0.9-0.2-1.4 0.1-0.2 0.1-0.4 0.3-0.7 0.5l0.7 0.4c-0.7 0.4-1.2 1.3-1.2 2.1 0 0.4 0.1 0.6 0.4 0.8l-1.1-0.6v0.3c0 0.6 0.2 1.1 0.6 1.3l-1.7-1c-0.4-0.2-0.6-0.7-0.6-1.3-0.1-1.4 0.8-2.9 1.9-3.5z"/>
					<path class="st10" d="m9.4 196.8c0 1.3 0.9 1.8 2 1.1 1.1-0.6 2-2.2 2-3.5s-0.9-1.8-2-1.1-2 2.2-2 3.5z"/>
					<path class="st9" d="m38.9 175.5c0.6-0.3 1.1-0.4 1.4-0.1 0.1 0.1 0.3 0.1 0.4 0.2l0.6 0.3c0.2 0.1 0.4 0.3 0.7 0.4-0.4-0.2-0.9-0.2-1.4 0.1-0.2 0.1-0.5 0.3-0.7 0.5l0.7 0.4c-0.7 0.4-1.2 1.3-1.2 2.1 0 0.4 0.1 0.6 0.4 0.8l-1.1-0.7v0.3c0 0.6 0.2 1.1 0.6 1.3l-1.7-1c-0.4-0.2-0.6-0.6-0.6-1.3-0.1-1.1 0.8-2.7 1.9-3.3z"/>
					<path class="st10" d="m38.6 179.9c0 1.3 0.9 1.8 2 1.1 1.1-0.6 2-2.2 2-3.5s-0.9-1.8-2-1.1-2 2.3-2 3.5z"/>
					<path class="st11" d="m8.5 173.2 13.7 8v2.6l-13.7-8c-0.3-0.2-0.5-0.5-0.5-0.8v-2.6c0 0.3 0.1 0.6 0.5 0.8z"/>
					<path class="st11" d="m41.6 173.2c0.4-0.2 0.6-0.5 0.6-0.8v2.6c0 0.3-0.2 0.6-0.6 0.8l-13.8 8v-2.6l13.8-8z"/>
					<path class="st12" d="m8.5 171.6c0.8-0.5 2-0.5 2.8 0l13.7 8v0.6l-0.8 0.5-2 0.6-13.7-8c-0.7-0.5-0.7-1.3 0-1.7z"/>
					<path class="st12" d="m25 180.1v-0.6l13.8-8c0.8-0.5 2-0.5 2.8 0s0.8 1.2 0 1.6l-13.8 8-2-0.6-0.8-0.4z"/>
					<path class="st11" d="m8.4 190.7c0.8 0.5 2 0.5 2.8 0l13.8-8v2.6l-13.8 8c-0.8 0.5-2 0.5-2.8 0-0.4-0.2-0.6-0.5-0.6-0.8v-2.6c0.1 0.3 0.2 0.6 0.6 0.8z"/>
					<path class="st12" d="m8.4 189.1 13.8-8 2-0.6 0.8 0.5v1.8l-13.8 8c-0.8 0.5-2 0.5-2.8 0-0.7-0.5-0.7-1.2 0-1.7z"/>
					<path class="st12" d="m25 181 0.8-0.5 2 0.6 13.7 8c0.8 0.5 0.8 1.2 0 1.6-0.8 0.5-2 0.5-2.8 0l-13.7-8v-1.7z"/>
					<path class="st11" d="m38.7 190.7c0.8 0.5 2 0.5 2.8 0 0.4-0.2 0.6-0.5 0.6-0.8v2.6c0 0.3-0.2 0.6-0.6 0.8-0.8 0.5-2 0.5-2.8 0l-13.7-8v-2.6l13.7 8z"/>
				<path class="st10" d="m22.6 174c0-0.4 0.2-0.7 0.7-1 0.9-0.6 2.5-0.6 3.5 0 0.5 0.3 0.8 0.6 0.8 1v7.1c0 0.1 0 0.1-0.1 0.2 0 0 0 0.1-0.1 0.1 0 0.1-0.1 0.1-0.1 0.2l-0.1 0.1s-0.2 0.1-0.3 0.2c-0.9 0.6-2.5 0.6-3.5 0-0.1-0.1-0.2-0.1-0.3-0.2l-0.3-0.3s0-0.1-0.1-0.1c0 0-0.1-0.1-0.1-0.2v-0.1-0.2-6.8z"/>
				<path class="st13" d="m24.1 167.9c0.5-0.3 1.3-0.3 1.8 0 0.3 0.1 0.4 0.3 0.4 0.5v5.2 0.1 0.1 0.1 0.1l-0.1 0.1h-0.1l-0.1 0.1c-0.5 0.3-1.3 0.3-1.8 0-0.1 0-0.1-0.1-0.2-0.1 0 0-0.1 0-0.1-0.1v-0.1s0 0 0-0.1v-0.1-0.1-2.6-2.6c-0.1-0.1 0-0.3 0.2-0.5z"/>
				<path class="st9" d="m14.7 172.1 0.4-0.4c0.1-0.1 0.2-0.2 0.3-0.2l6.1-3.5-0.6-0.4-6.1 3.5c-0.1 0.1-0.2 0.1-0.3 0.2l-0.4 0.4c-0.1 0.1-0.1 0.2-0.2 0.3l-0.1 0.1c-0.1 0.1-0.2 0.3-0.3 0.4l-3.2 5.3 0.6 0.4 3.2-5.3c0.1-0.1 0.2-0.3 0.3-0.4 0 0 0.1 0 0.1-0.1s0.1-0.2 0.2-0.3z"/>
				<path class="st9" d="m9.9 177.9c-0.4 0.2-3.4 1.8-3.3 2.2-0.3 0.6 0.2 0.7 0.7 1-0.3-0.2-0.1-1 0.2-1.1 0.1-0.1 2.8-1.7 2.9-1.7 0.1-0.1 0.3-0.1 0.4 0-0.3-0.3-0.6-0.6-0.9-0.4z"/>
					<path class="st8" d="m21.6 167.9v0.4l-6.1 3.5c-0.4 0.2-0.8 0.6-1.1 1.1l-3.3 5.5c0 0.3-0.2 0.7-0.5 0.9l-2.9 1.7c-0.3 0.2-0.5 0-0.5-0.3s0.2-0.7 0.5-0.9l2.8-1.6c0.1-0.1 0.3-0.1 0.4 0l3.2-5.3c0.4-0.6 0.9-1.1 1.4-1.4l6.1-3.6z"/>
					<polygon class="st9" points="31 141.2 29.7 140.4 23.6 144 24.9 144.7"/>
				<polygon class="st9" points="29.3 142.4 32 130.4 33.3 131.1 38.9 134.4 38.9 135.9 33 132.5 30.6 143.1"/>
				<polygon class="st14" points="23.6 145.7 24.9 146.4 24.9 144.7 23.6 143.9"/>
					<g class="st15">
						<polygon class="st14" points="40.5 133.5 40.5 135 38.9 135.9 38.9 134.4"/>
							<polygon class="st16" points="40.5 133.5 38.9 134.4 32 130.4 33.5 129.5"/>
					</g>
				<polygon class="st8" points="31 141.1 33 132.5 34.1 133.1 32.1 142.3 24.9 146.4 24.9 144.7"/>
			<path class="st17" d="m12.4 150.9c0.1 0.1 0.2 0.2 0.2 0.4v3l-3.9-2.3v-3c0-0.2-0.1-0.4-0.2-0.4l3.9 2.3z"/>
			<path class="st12" d="m11.6 123.3c-1.6 0.9-2.8 3.3-2.4 4.9l0.5 2.1c0.2 1 0.4 8 0.4 9.2v11c0 0.8 0.6 1.2 1.3 0.7l0.6-0.3c0.4-0.2 0.6 0 0.6 0.4v3l12.5-7.2c0.2-0.1 0.3-0.3 0.3-0.5v-2.7c0-0.4 0.3-0.9 0.6-1.1l0.6-0.3c0.7-0.4 1.3-1.4 1.3-2.3v-11c0-1.2 0.1-8.3 0.4-9.6l0.5-2.7c0.4-2-0.8-3-2.4-2.1l-14.8 8.5z"/>
			<path class="st9" d="m7.7 121.1 14.8-8.5c0.7-0.4 1.3-0.4 1.8-0.2l3.9 2.3c-0.4-0.3-1.1-0.2-1.8 0.2l-14.8 8.5c-1.6 0.9-2.8 3.3-2.4 4.9l0.5 2.1c0.2 1 0.4 8 0.4 9.2v11c0 0.4 0.1 0.7 0.4 0.8l-3.9-2.3c-0.2-0.1-0.4-0.4-0.4-0.8v-11c0-1.2-0.1-8.2-0.4-9.2l-0.4-2.1c-0.4-1.6 0.7-4 2.3-4.9z"/>
				<polygon class="st9" points="16.8 112.9 15.7 112.3 15.7 118.4 16.8 119"/>
				<polygon class="st8" points="16.8 112.9 16.8 119 18.4 118.1 18.4 112"/>
			<path class="st12" d="m11.8 157.8 17.6-10.1c0.6-0.3 1.1-0.4 1.5-0.1l17.5 10.1c-0.4-0.2-0.9-0.2-1.5 0.1l-17.6 10.1c-1.1 0.7-2.1 2.3-2.1 3.6 0 0.6 0.2 1.1 0.6 1.3-4.3-2.5-13.2-7.6-17.5-10.1-0.4-0.2-0.6-0.7-0.6-1.3 0-1.4 0.9-3 2.1-3.6z"/>
			<path class="st9" d="m29 167.8c-1.1 0.7-2.1 2.3-2.1 3.6s0.9 1.9 2.1 1.2l17.6-10.1c1.2-0.7 2.1-2.3 2.1-3.6s-0.9-1.8-2.1-1.2l-17.6 10.1z"/>
			<path class="st9" d="m10.4 107.8 9.9-5.7c0.4-0.2 0.7-0.2 0.9-0.1l2.6 1.5c-0.2-0.1-0.6-0.1-0.9 0.1l-9.9 5.7c-0.7 0.4-1.3 1.4-1.3 2.2v4.3c0 0.4 0.1 0.7 0.4 0.8l-2.6-1.5c-0.2-0.1-0.4-0.4-0.4-0.8v-4.3c0.1-0.8 0.6-1.8 1.3-2.2z"/>
			<path class="st12" d="m13 109.3c-0.7 0.4-1.3 1.4-1.3 2.2v4.3c0 0.8 0.6 1.2 1.3 0.7l9.9-5.7c0.7-0.4 1.3-1.4 1.3-2.2v-4.3c0-0.8-0.6-1.1-1.3-0.8l-9.9 5.8z"/>
					<polygon class="st9" points="11.5 152 10.2 151.3 3.5 155.1 4.8 155.8"/>
				<polygon class="st8" points="3.2 148.5 5.4 155.5 11.5 152 11.5 153.7 4.3 157.8 1.7 149.3"/>
					<g class="st15">
						<polygon class="st18" points="8.9 151.7 8.9 153.2 7.3 154.1 7.3 152.6"/>
						<polygon class="st9" points="1.7 149.3 7.3 152.6 7.3 154.1 2.3 151.2 4.3 157.8 3 157.1 0.4 148.6"/>
							<polygon class="st16" points="8.9 151.7 7.3 152.6 0.4 148.6 1.9 147.7"/>
					</g>
				<path class="st13" d="m1.5 146.6 2.5-1.4c0.4-0.2 0.8-0.3 1-0.1l12.9 7.5c-0.3-0.2-0.6-0.1-1 0.1l-2.5 1.4c-0.8 0.5-1.5 1.6-1.5 2.5 0 0.5 0.2 0.8 0.4 0.9l-12.9-7.5c-0.3-0.1-0.4-0.5-0.4-0.9 0-0.9 0.6-2 1.5-2.5z"/>
				<path class="st9" d="m14.4 154.2c-0.8 0.5-1.5 1.6-1.5 2.5s0.6 1.3 1.5 0.8l2.5-1.4c0.8-0.5 1.5-1.6 1.5-2.5s-0.7-1.3-1.5-0.8l-2.5 1.4z"/>
				<path class="st13" d="m31.5 127.6 2.5-1.4c0.4-0.2 0.8-0.3 1-0.1l12.9 7.5c-0.3-0.2-0.6-0.1-1 0.1l-2.5 1.4c-0.8 0.5-1.5 1.6-1.4 2.5 0 0.5 0.2 0.8 0.4 0.9l-12.9-7.5c-0.3-0.1-0.4-0.5-0.4-0.9-0.1-0.9 0.6-2.1 1.4-2.5z"/>
				<path class="st9" d="m44.4 135.1c-0.8 0.5-1.5 1.6-1.4 2.5 0 0.9 0.7 1.3 1.5 0.8l2.5-1.4c0.8-0.5 1.5-1.6 1.4-2.5 0-0.9-0.6-1.3-1.5-0.8l-2.5 1.4z"/>
			<path class="st19" d="m41.8 137.9c-1.7-1.7-6.2-7-6.2-7s-4.6-8.2-2.3-9.4 4.3-1.9 7.2 2.6c0.7 1 6.1 10 6.9 10.8 1.6 1.7-1.2 8.1-1.2 8.1l-4.4-5.1z"/>
			<path class="st20" d="m58.1 185.7v-0.1 0.1c0-0.6-0.5-0.9-0.7-1-0.4-0.2-7.2-3.4-7.2-3.4l-1.5-1.3-7.1 0.8 0.5 3.6c0.1 0.5 0.3 1.8 0.5 1.8l2.6 1c0-0.1-0.1-0.7-0.1-0.8 0.2-0.2 0.8 0.2 0.8 0.2 0.1-0.2 0.2-0.3 0.4-0.4 0.4 0.1 1.3 0.3 2.1 0.5 1 0.4 4.3 1.5 6.7 1.2 0.9-0.1 2.4-0.6 2.9-1.5 0.1-0.2 0.1-0.5 0.1-0.7z"/>
			<path class="st21" d="m44.9 186.2-2.8-1.1s0.2 1.1 0.3 1l2.6 1s-0.1-0.6-0.1-0.9z"/>
			<linearGradient id="ak" x1="21.67" x2="51.11" y1="507.95" y2="507.95" gradientTransform="translate(0 -343.51)" gradientUnits="userSpaceOnUse">
			<stop stop-color="#1276E9" offset="0"/>
			<stop stop-color="#1063D6" offset="1"/>
		</linearGradient>
		<path class="st22" d="m21.7 143.9 10 2.9 14 9.8s1.9 1.5 2.4 6.8c0.5 5.9 3 18.2 3 18.2 0 1.1-0.5 1.5-1.4 1.9-5.4 2.9-8.2 0.6-8.2 0.6-0.4-0.3-0.4-0.5-0.4-0.9l-3.5-19.6-10.3-5.6s-5-2.3-5.3-6c-0.2-1.6-0.3-8.1-0.3-8.1z"/>
		<path class="st20" d="m52.2 191.4c0-0.5-0.3-1-0.7-1.2-0.8-0.5-3.1-2.3-3.1-2.3l-4.5-3.7-7.4-0.4v4.1c0 0.5 0.2 1.5 0.2 1.5l2.5 1.7v-0.5-0.4c0.2-0.3 0.8-0.1 1.4 0.4 0.2 0.2 3.2 2.1 3.6 2.4 0 0 2.7 1.6 5.3 1 0.9-0.2 2-0.6 2.5-1.2 0.2-0.2 0.3-0.5 0.3-0.8v-0.1c-0.2-0.2-0.1-0.4-0.1-0.5z"/>
			<linearGradient id="z" x1="17.224" x2="46.096" y1="511.76" y2="511.76" gradientTransform="translate(0 -343.51)" gradientUnits="userSpaceOnUse">
			<stop stop-color="#1276E9" offset="0"/>
			<stop stop-color="#1168E0" offset="1"/>
		</linearGradient>
		<path class="st23" d="m17.7 147.7 9.2 2.9 13.5 9.6s1.7 1.2 2.7 6.4c0.9 4.7 2.7 15.6 2.9 18.7 0.1 1.1-0.8 1.6-1.6 2.1-5.4 2.9-7.6 0.4-7.6 0.4-0.4-0.3-0.4-0.5-0.4-0.9l-3.5-18.1c0-1.1-0.1-1.5-1.1-2.1l-9.3-5.1s-5-2.2-5.3-6c-0.1-1.6 0.5-7.9 0.5-7.9z"/>
		<path class="st24" d="m37.6 121.2c1.5 3.3 1.1 4.3 0.9 7.3l-2.6 27.1c-0.1 0.9-0.2 1.9-1.1 2.5 0 0-6.5 2.8-9.8 2.3-3.4-0.5-6.5-2.7-6.5-2.7-2-1.3-1.5-4.7-1.5-4.4 0 0-2.4-18.1-1.6-23.7 0.2-1.8 2.1-3 2.1-3 1-0.8 8.8-5.6 8.8-5.6l4.9-1.2c-0.1 0 5.4-0.9 6.4 1.4z"/>
			<linearGradient id="o" x1="29.558" x2="39.987" y1="467.38" y2="486.66" gradientTransform="translate(0 -343.51)" gradientUnits="userSpaceOnUse">
			<stop stop-color="#C9F9FF" offset="0"/>
			<stop stop-color="#C3F8FF" offset=".1376"/>
			<stop stop-color="#B0F4FF" offset=".3299"/>
			<stop stop-color="#93EEFF" offset=".5546"/>
			<stop stop-color="#69E5FF" offset=".8017"/>
			<stop stop-color="#43DDFF" offset="1"/>
		</linearGradient>
		<path class="st25" d="m33.2 128.1c1-1.3 1.1-6.4-0.9-8.4-0.7 0-1.1 0.1-1.1 0.1l-4.9 1.2s-1.2 0.7-2.6 1.6c0.7 0.1 2.2 2.1 4.3 4.4 1.9 2.1 3.8 2.9 5.2 1.1z"/>
		<path class="st26" d="m32.4 123.5c-2.9 2.3-4.1-0.5-5.6-2.7l0.4-7.2 5.8 2.3-0.6 7.6z"/>
		<path class="st27" d="m26.9 118.4s-0.1 1-0.1 1.1c0.4 3 3.9 4.4 3.9 4.4 0.4 0.3 0.4 0.8 0.3 1.5l-0.4 2c-0.1 0.7-0.5 0.6-0.7 0.3 0 0-2.6-2.5-3.3-3.4-1.7-2-1.5-2.4-0.6-4.7 0.5-1.2 0.9-1.2 0.9-1.2z"/>
		<path class="st27" d="m31.6 123.9c-0.3 0.3-0.3 0.6-0.1 0.9l1 1.6c0.5 0.7 0.6 0.2 0.7-0.4l0.4-4c-0.1-2.5-0.7-2.7-0.7-2.7s-0.1 0.6-0.1 1.1c-0.1 0.9-0.3 2.6-1.2 3.5z"/>
			<polygon class="st28" points="37.7 158.6 37.7 159 38.6 159.6 38.6 159.2"/>
			<polygon class="st28" points="36.2 157.8 36.2 158.2 37.1 158.8 37.2 158.3"/>
		<polygon class="st29" points="38.6 159.4 37.7 158.9 37.7 158.6 38.6 159.1"/>
		<polygon class="st29" points="37.1 158.6 36.2 158.1 36.2 157.8 37.1 158.3"/>
			<path class="st26" d="m32.1 154.4c0.9 0.3 1.9-0.7 2.2-1.6 0.1-0.3 1.9 0.1 2.7-0.1s0.7-1 0.5-1.2c-0.1-0.1-2.9-0.2-3.6-0.3-2.3-0.2-2.7 0.7-3 1.5-0.3 0.9 0.3 1.4 1.2 1.7z"/>
			<path class="st19" d="m31.8 153.5c-0.5 0.9-0.7 0.4-0.7 0.4s-3.2 2-3.6 1.8c-2.6-0.8-8.2-2.4-10.2-3.7-2.6-1.7-2.5-5.5-2.5-5.5s-0.3-14 0.4-16.5c1.1-4.3 6.1-2.4 6.5 2.3 0.1 1.7 0.7 8.3 0.1 11.3-0.4 2 1.3 3 1.3 3l6.7 3.7s3 1.5 2 3.2z"/>
			<path class="st26" d="m30.2 154.9 0.8-2.4h3.2l0.5 0.1 3.6 1.6s1.8 0.6 1.2 2.6c-0.4 1.3 0 0.1 0 0.1-0.6 1.7-2.5 1.3-2.5 1.3l-5-1.2c-1.1-0.2-2.2-0.9-1.8-2.1z"/>
			<path class="st27" d="m32.4 150.7c0.4 0.2 0.9 1.5 0.4 2.8-0.6 1.7-1.2 2.4-1.2 2.4-0.6 0.7-1.1 1-1.6 0.8 0 0-2.1-0.6-2.7-0.8-0.4-0.1-0.3-0.3-0.3-0.3s0.3 0.1 0.5 0.1c0.5-0.1 1.4-0.5 2.1-2.1 1.2-2.5-0.2-3.5-0.2-3.5 0.2-0.4 0.4-0.4 0.8-0.2l2.2 0.8z"/>
		<path class="st19" d="m40.7 140.7s0.6-3.9 1.5-4.9c1.1-1.3 1.9-2.4 4.1-1.5 2.4 1 1.8 4 1.4 5s-1.7 3.6-1.7 3.6l-5.3-2.2z"/>
			<path class="st26" d="m42.7 144.2c-0.4 0.9-1.8 1-2.6 0.6-0.3-0.1-1.2 1.5-1.8 1.9-0.7 0.5-1.2-0.2-1.3-0.5 0-0.2 1.8-2.3 2.2-2.9 1.4-1.9 2.3-1.6 3.1-1.2 0.8 0.5 0.8 1.2 0.4 2.1z"/>
			<path class="st26" d="m44.3 143.1-2.3-1-2.1 2.4-0.2 0.5-1.2 3.8s-0.3 1.2 1.6 1.9c2.1 0.7 3.2-1.3 3.2-1.3l1.5-3.5c0.5-1 0.6-2.3-0.5-2.8z"/>
			<path class="st27" d="m40.6 139.8c0.2-0.4 1.5-0.8 2.8-0.3 1.7 0.6 2.3 1.3 2.3 1.3 0.6 0.6 0.9 1.1 0.7 1.6 0 0-0.7 2-0.9 2.6-0.1 0.4-0.4 0.3-0.4 0.3s0.1-0.3 0.1-0.5c-0.1-0.5-0.5-1.4-2-2.2-2.4-1.3-3.4 0-3.4 0-0.4-0.2-0.4-0.4-0.2-0.8l1-2z"/>
			<path class="st30" d="m28.6 110.3c1.3-0.1 1.6 1.1 1.6 1.1l0.3 2.6s0 0.6-0.5 0.7c-0.7 0.2-1.1-0.4-1.5-1 0 0-0.6-1-0.6-1.1-0.5-0.9-0.5-2.2 0.7-2.3z"/>
			<path class="st26" d="m32.5 107.4-4.9 0.3 0.4 8.8c0.1 0.6 0.1 1.1 0.2 1.7s0.2 1.4 0.9 1.8c0 0 0.8 0.4 1.9 1 0.7 0.4 1.5 0.8 2.4 1 0.6 0.1 2-0.6 2-0.6 0.9-0.4 0.7-0.4 1.3-3.1 0 0 0.8-4.9 1-6.4 0.7-4.2-0.9-5-0.9-5l-4.3 0.5z"/>
			<path class="st20" d="m38.2 108.9c0 0.1-0.2 2.3-0.4 2.6 0 0 0.5-3.6-1.3-2.9 0 0-1.3 1-2 1.5-0.4 0.3-1.3 0.8-1.4 0.6-0.1-0.1 0.3-1.1-0.8-1.1-1.3 0.1-2 1.6-2.1 3.4 0 1.4 0 2.5-0.1 2.5-0.1 0.2-1.9-1.5-2-1.6-0.2-0.1-0.6 0.8-0.6 0.8s-0.6 2.6-0.8 2.3c-0.6-1.2-1.6-3.4-1.7-3.8-2.4-5.7 1.9-12.9 11.9-7.2 1 0.7 1.6 0.8 1.3 2.9z"/>
			<path class="st20" d="m36.7 119s-0.1-0.5-0.2-0.9c-0.1-0.3-0.3-0.5-0.9-0.6-0.3 0-1.1 0.1-1.4 0.1-0.5 0.1-1 0.3-1.3 0.8-0.6 0.8-1.6 2.8-1.6 2.8l1.4 0.7s0.9-2.6 1.3-3c0.2-0.2 1.2-0.4 1.8-0.4 0.3 0 0.5 0.2 0.6 0.5 0.1 0.5 0.2 0.9 0.2 0.9l0.1-0.9z"/>
			<path class="st20" d="m28.1 116.8s-0.1 1.8 0 2.5 0.7 1.1 1.8 1.8c1.3 0.8 2.5 1.5 3.1 1.6 1.1 0.1 2.9-0.6 3.3-1.3 0.1-0.3 0.2-1.8 0.2-1.8s-0.4 1.1-0.8 1.2c-0.1 0-0.3-0.4-0.3-0.4s-0.2-0.5-0.6 0.1c-0.3 0.5-0.4 0.7-0.6 0.8-0.9 0.3-1.9 0-2.9-0.5-1.2-0.6-2.6-1.7-2.7-2.1-0.1-0.7-0.5-1.9-0.5-1.9z"/>
			<path class="st26" d="m27.8 112.4c1.1-0.2 1.4 1.2 1.4 1.2l0.3 2.6s0 0.9-0.6 0.9c-0.6 0.1-1.1-0.3-1.5-1 0 0-0.6-1-0.6-1.1-0.3-0.8-0.3-2.3 1-2.6z"/>
			<g class="st15">
				<g class="st15">
							<linearGradient id="d" x1="921.4" x2="925.64" y1="547.5" y2="547.5" gradientTransform="matrix(-1 0 0 1 954.78 -343.51)" gradientUnits="userSpaceOnUse">
							<stop stop-color="#C9F9FF" offset="0"/>
							<stop stop-color="#C3F8FF" offset=".1376"/>
							<stop stop-color="#B0F4FF" offset=".3299"/>
							<stop stop-color="#93EEFF" offset=".5546"/>
							<stop stop-color="#69E5FF" offset=".8017"/>
							<stop stop-color="#43DDFF" offset="1"/>
						</linearGradient>
						<path class="st31" d="m33.4 185.8v35.1c0 0.3-0.2 0.6-0.6 0.9-1.3 0.8-3.6 0.2-3.6-0.9v-35.1c0 1.1 2.3 1.6 3.6 0.9 0.4-0.3 0.6-0.6 0.6-0.9z"/>
				</g>
			</g>
			<g class="st15">
				<g class="st15">
							<linearGradient id="a" x1="860.24" x2="864.48" y1="515.6" y2="515.6" gradientTransform="matrix(-1 0 0 1 954.78 -343.51)" gradientUnits="userSpaceOnUse">
							<stop stop-color="#C9F9FF" offset="0"/>
							<stop stop-color="#C3F8FF" offset=".1376"/>
							<stop stop-color="#B0F4FF" offset=".3299"/>
							<stop stop-color="#93EEFF" offset=".5546"/>
							<stop stop-color="#69E5FF" offset=".8017"/>
							<stop stop-color="#43DDFF" offset="1"/>
						</linearGradient>
						<path class="st32" d="m94.5 153.9v35.1c0 0.3-0.2 0.6-0.6 0.9-1.3 0.8-3.6 0.2-3.6-0.9v-35.1c0 1.1 2.3 1.6 3.6 0.9 0.4-0.3 0.6-0.6 0.6-0.9z"/>
				</g>
			</g>
			<g class="st15">
				<g class="st15">
							<linearGradient id="cm" x1="940.62" x2="944.87" y1="535.6" y2="535.6" gradientTransform="matrix(-1 0 0 1 954.78 -343.51)" gradientUnits="userSpaceOnUse">
							<stop stop-color="#C9F9FF" offset="0"/>
							<stop stop-color="#C3F8FF" offset=".1376"/>
							<stop stop-color="#B0F4FF" offset=".3299"/>
							<stop stop-color="#93EEFF" offset=".5546"/>
							<stop stop-color="#69E5FF" offset=".8017"/>
							<stop stop-color="#43DDFF" offset="1"/>
						</linearGradient>
						<path class="st33" d="m14.2 173.9v35.1c0 0.3-0.2 0.6-0.6 0.9-0.8 0.5-2.2 0.5-3 0-0.4-0.2-0.6-0.6-0.6-0.9v-35.1c0 0.3 0.2 0.6 0.6 0.9 0.8 0.5 2.2 0.5 3 0 0.4-0.2 0.6-0.5 0.6-0.9z"/>
				</g>
			</g>
		<g class="st15">
				<linearGradient id="cl" x1="854.19" x2="949.88" y1="511.61" y2="511.61" gradientTransform="matrix(-1 0 0 1 954.78 -343.51)" gradientUnits="userSpaceOnUse">
				<stop stop-color="#12C2E9" offset=".5419"/>
				<stop stop-color="#7D1EDC" offset=".8031"/>
			</linearGradient>
			<path class="st34" d="m6.6 175 60-34.6c3.2-1.9 7.2-1.9 10.5 0l21.8 12.6c1.2 0.7 1.7 1.9 1.7 3v2.1c0 1.2-0.6 2.4-1.7 3.1l-60.1 34.6c-3.2 1.9-7.2 1.9-10.5 0l-21.7-12.6c-1.2-0.7-1.7-1.8-1.7-3v-2.2c0-1.2 0.6-2.3 1.7-3z"/>
					<linearGradient id="ck" x1="854.16" x2="949.91" y1="510.61" y2="510.61" gradientTransform="matrix(-1 0 0 1 954.78 -343.51)" gradientUnits="userSpaceOnUse">
					<stop stop-color="#7D1EDC" offset="0"/>
					<stop stop-color="#12C2E9" offset="1"/>
				</linearGradient>
				<path class="st35" d="m38.8 193.7c-3.2 1.9-7.2 1.9-10.5 0l-21.7-12.6c-2.3-1.4-2.3-4.7 0-6l60-34.6c3.2-1.9 7.2-1.9 10.5 0l21.8 12.5c2.3 1.3 2.3 4.7 0 6l-60.1 34.7z"/>
		</g>
			<g class="st15">
				<path class="st12" d="m47.3 170.4 21.7-13.9v0.6c0 0.5-0.2 0.9-0.6 1.1l-20.4 13.2c-0.4 0.2-0.9 0.3-1.3 0l-15.8-8.4c-0.3-0.2-0.5-0.5-0.5-0.8v-0.4l16.9 8.6z"/>
					<path class="st12" d="M30.7,161.3c-0.5,0.3-0.4,1,0,1.2l16.6,7.9L69,156.5L52.6,150c-0.8-0.3-1.6-0.2-2.3,0.2L30.7,161.3z"/>
			</g>
				<path class="st36" d="m38.3 164.4c-0.2 0.1-0.4 0.6 0.4 0.9l7.3 3.6c0.6 0.3 1.1 0 1.6-0.4l18.4-11.7c0.4-0.3 0.3-0.6 0-0.8l-7.1-4c-0.4-0.2-0.9-0.3-1.1-0.1l-19.5 12.5z"/>
		<g class="st15">
			<path class="st12" d="m66.8 140.9c0.3-0.2 0.6-0.2 0.9 0l0.3 0.1-20.9 13.6 0.3 15.7-0.5-0.3-0.7-14.9c0-0.7 0.3-1.3 0.9-1.7l19.7-12.5z"/>
				<path class="st37" d="m47.5 153.8c-0.6 0.4-0.9 1-0.9 1.7l0.7 14.9 21.7-13.9-0.7-14.9c0-0.5-0.6-0.8-1-0.5l-19.8 12.7z"/>
		</g>
		<linearGradient id="cj" x1="210.67" x2="246.98" y1="613.67" y2="660.1" gradientTransform="translate(0 -343.51)" gradientUnits="userSpaceOnUse">
		<stop stop-color="#12C2E9" offset="0"/>
		<stop stop-color="#7D1EDC" offset="1"/>
	</linearGradient>
	<path class="st38" d="m230.5 288.6h-6.5v8h6.5c2.2 0 4-1.8 4-4s-1.8-4-4-4z"/>
		<linearGradient id="ci" x1="213.05" x2="249.36" y1="611.81" y2="658.24" gradientTransform="translate(0 -343.51)" gradientUnits="userSpaceOnUse">
		<stop stop-color="#12C2E9" offset="0"/>
		<stop stop-color="#7D1EDC" offset="1"/>
	</linearGradient>
	<path class="st39" d="m227.5 261.7c-13.9 0-25.1 11.3-25.1 25.1 0 13.9 11.3 25.1 25.1 25.1 13.9 0 25.1-11.3 25.1-25.1 0.1-13.8-11.2-25.1-25.1-25.1zm7 38.8c-0.4 0-0.7 0.1-1.1 0.1h-2.8v6.1h-3.3v-6.1h-3.3v6.1h-3.3v-6.1h-7.3l0.8-3.9h3.8v-19.6h-4.7v-3.5h7.4v-6.4h3.3v6.4h3.3v-6.4h3.3v6.4h2c3.6 0 6.5 2.9 6.5 6.5v0.5c0 2-0.9 3.8-2.3 4.9 2.6 1.3 4.4 4 4.4 7.1 0.1 4-2.9 7.3-6.7 7.9z"/>
		<linearGradient id="ch" x1="215.95" x2="252.26" y1="609.54" y2="655.98" gradientTransform="translate(0 -343.51)" gradientUnits="userSpaceOnUse">
		<stop stop-color="#12C2E9" offset="0"/>
		<stop stop-color="#7D1EDC" offset="1"/>
	</linearGradient>
	<path class="st40" d="m232.7 281.4v-1.1c0-1.8-1.5-3.3-3.3-3.3h-5.4v7.6h5.5c1.8 0.1 3.2-1.4 3.2-3.2z"/>
<line class="st41" x1="361.4" x2="336.5" y1="127" y2="141.4"/>
	<path class="st42" d="m167.5 358.1s-4.6 0-5.3 2.7c-0.4 1.4 2.1 12.6 2.1 12.6l2.7-5.6s-0.1-4.4-0.5-5c-0.1-0.3 1-4.7 1-4.7z"/>
	<path class="st26" d="m165.4 360s-4.8 0.5-4.9 3.8c0 1.4 3.1 12.1 3.1 12.1l2-6.3s-0.4-4.4-0.8-5c-0.2-0.2 0.6-4.6 0.6-4.6z"/>
				<linearGradient id="cg" x1="241.33" x2="293.42" y1="717.66" y2="717.66" gradientTransform="translate(-79.115 -343.51)" gradientUnits="userSpaceOnUse">
				<stop stop-color="#12C2E9" offset="0"/>
				<stop stop-color="#7D1EDC" offset="1"/>
			</linearGradient>
			<path class="st43" d="m194.7 368-11.5-6.4c-3-1.7-6.7-1.7-9.7 0l-9.6 5.6c-1.1 0.6-1.6 1.7-1.6 2.8v7.5c0 1.1 0.5 2.2 1.6 2.8l11.5 6.4c3 1.7 6.7 1.7 9.7 0l9.6-5.7c1.1-0.6 1.6-1.7 1.6-2.8v-7.6c0-1-0.5-2-1.6-2.6z"/>
				<path class="st44" d="m180.2 380.5c-1.7 0-3.4-0.4-4.9-1.3l-11.5-6.4c-1-0.6-1.6-1.6-1.6-2.8s0.6-2.2 1.6-2.8l9.6-5.6c1.5-0.9 3.2-1.3 4.9-1.3s3.4 0.5 4.8 1.3l11.5 6.4c1 0.6 1.6 1.6 1.6 2.8s-0.6 2.2-1.6 2.8l-9.6 5.6c-1.4 0.9-3.1 1.3-4.8 1.3z"/>
		<path class="st45" d="m171.2 357.4c-1.3 0-5.2 2.1-5.2 2.1-2.9 1.6-1.4 6.8-0.8 7 0 0 4.9 0.5 6.2 0.8 2.6 0.5 6.1 1 8.4 0.1 0.7-0.3 1.9-0.6 3.4-1.7 1.1-0.8 1.8-3.7 1.6-5.3-0.2-1.9-0.5-3.7-0.5-3.7s-12.9 0.7-13.1 0.7z"/>
			<g class="st15">
				<g class="st15">
							<defs>
								<path id="cf" d="m177 356.1-0.5 0.3s0.1 0 0.2-0.1c0.4-0.1 0.8 0.1 1.1 0.2 0.1 0 0.1 0.1 0.1 0.1l0.5-0.3s-0.1 0-0.1-0.1c-0.2-0.1-0.7-0.3-1.1-0.2-0.1 0-0.1 0-0.2 0.1z"/>
							</defs>
							<clipPath id="ce">
								<use xlink:href="#cf"/>
							</clipPath>
							<g class="st46">
								<path class="st47" d="m177.8 356.6 0.5-0.3s-0.1 0-0.1-0.1c-0.2-0.1-0.7-0.3-1.1-0.2-0.1 0-0.1 0-0.2 0.1l-0.5 0.3s0.1 0 0.2-0.1c0.4-0.1 0.8 0.1 1.1 0.2l0.1 0.1z"/>
							</g>
				</g>
			</g>
			<linearGradient id="cd" x1="478.13" x2="484.07" y1="692.75" y2="693.4" gradientTransform="translate(-309.75 -343.51)" gradientUnits="userSpaceOnUse">
			<stop stop-color="#C9F9FF" offset="0"/>
			<stop stop-color="#C3F8FF" offset=".1376"/>
			<stop stop-color="#B0F4FF" offset=".3299"/>
			<stop stop-color="#93EEFF" offset=".5546"/>
			<stop stop-color="#69E5FF" offset=".8017"/>
			<stop stop-color="#43DDFF" offset="1"/>
		</linearGradient>
		<path class="st48" d="m179.1 343.8s2.9 4.2 2.3 8.2c-0.1 0.7-1.4 0.6-2.7 2.2 0 0 0.2 3.1-2.3 2.5-4.2-1.1-8.8-2.8-8.8-2.8s-0.4-0.5-0.1-1.2c0.4-0.9 1.2-1 1.2-1l6.4 0.7 4-8.6z"/>
		<path class="st49" d="m175.2 326.1-3.4 0.2 1.7 9c0.3 1.7 1.3 2.4 2.1 2.4 1.5 0 2.5-1.1 3.9-2.9 1.2-1.6 1-2.6 1-2.8l0.5-5.9h-5.8z"/>
			<linearGradient id="cb" x1="481.82" x2="494.7" y1="693.06" y2="693.06" gradientTransform="translate(-309.75 -343.51)" gradientUnits="userSpaceOnUse">
			<stop stop-color="#C9F9FF" offset="0"/>
			<stop stop-color="#C3F8FF" offset=".1376"/>
			<stop stop-color="#B0F4FF" offset=".3299"/>
			<stop stop-color="#93EEFF" offset=".5546"/>
			<stop stop-color="#69E5FF" offset=".8017"/>
			<stop stop-color="#43DDFF" offset="1"/>
		</linearGradient>
		<path class="st50" d="m175.9 339.1-3.5 7.5s-0.3 0.5-0.3 0.9 0 1 0.5 1.8c0.1 0.1 0.1 0.2 0.2 0.3 0.6 0.8 1.2 1.6 1.2 2.5l-0.2 6.3s0.1 1 0.1 1.6c0 0 1.3 1.7 4.1 1.8 3 0 6.9-2.1 6.9-2.3l-1.3-6.4c-0.1-0.5-0.1-1.1-0.1-1.6l0.7-6.2s0.1-2.5-0.2-3.8c-0.9-3.4-3.3-3.9-3.4-4.2 0 0-4.4 1.3-4.7 1.8z"/>
		<path class="st20" d="m174.9 340.4s1.8 0.1 3.2-0.4c3.5-1.4 9.2-3.8 6.1-7.2-1.6-1.8-1-7.7-6.2-9-3.4-0.9-7.6 1.7-7.8 5.7-0.1 2.2 1.7 3.9 2.4 5.7 1 2.5-1.1 3.2-0.8 3.9 0.3 0.6 1.1 1.4 3.1 1.3z"/>
		<path class="st26" d="m164.1 359.2s-2.4-0.3-3.2-0.7c-0.9-0.4-2.3-1.8-2.3-1.8s-0.3-0.5-0.2-1.7c0-0.3 0.1-0.8 0.4-0.9 0.5-0.1 0.6 1 1.9 1.6 0.7 0.3 1.4 0.4 2.2 0.5 0.9 0.1 1.8 0.7 1.8 0.7l-0.6 2.3z"/>
			<linearGradient id="ca" x1="475.84" x2="488.96" y1="704.11" y2="690.12" gradientTransform="translate(-309.75 -343.51)" gradientUnits="userSpaceOnUse">
			<stop stop-color="#C9F9FF" offset="0"/>
			<stop stop-color="#C3F8FF" offset=".1376"/>
			<stop stop-color="#B0F4FF" offset=".3299"/>
			<stop stop-color="#93EEFF" offset=".5546"/>
			<stop stop-color="#69E5FF" offset=".8017"/>
			<stop stop-color="#43DDFF" offset="1"/>
		</linearGradient>
		<path class="st51" d="m163.5 358.4c0.1 1.3 0.7 1.3 0.7 1.3s6.7 1.2 9.2 0.8c1.3-0.2 2.3-1.5 2.6-2.8 0.3-1.1 1.8-7.8 1.8-7.8s1.4-4.5 0.5-6.2c-1.1-1.9-3.3-1.4-4.4 0.1-1.1 1.4-1.2 9.8-1.9 11.4-0.3 0.8-0.3 0.9-1.1 0.9l-6.3 0.9s-0.3 0.1-0.6 0.4c-0.3 0.1-0.5 0.7-0.5 1z"/>
				<linearGradient id="bz" x1="1092" x2="1104" y1="696.76" y2="696.76" gradientTransform="matrix(-1 0 0 1 1262.5 -343.51)" gradientUnits="userSpaceOnUse">
				<stop stop-color="#C9F9FF" offset="0"/>
				<stop stop-color="#C3F8FF" offset=".1376"/>
				<stop stop-color="#B0F4FF" offset=".3299"/>
				<stop stop-color="#93EEFF" offset=".5546"/>
				<stop stop-color="#69E5FF" offset=".8017"/>
				<stop stop-color="#43DDFF" offset="1"/>
			</linearGradient>
			<path class="st52" d="m153.5 351.2 5.3-3c0.4-0.3 1.1-0.3 1.5 0l9.9 5.7c0.2 0.1 0.3 0.3 0.3 0.4v0.5s-0.1 0.3-0.3 0.5l-5.3 3c-0.4 0.3-1.1 0.3-1.5 0l-9.9-5.7c-0.2-0.1-0.3-0.3-0.3-0.4s0-0.3 0-0.5 0.1-0.4 0.3-0.5z"/>
					<linearGradient id="by" x1="1097.3" x2="1103.7" y1="694.27" y2="698.59" gradientTransform="matrix(-1 0 0 1 1262.5 -343.51)" gradientUnits="userSpaceOnUse">
					<stop stop-color="#12C2E9" offset="0"/>
					<stop stop-color="#7D1EDC" offset="1"/>
				</linearGradient>
				<path class="st53" d="m153.5 351.2c-0.4 0.3-0.4 0.6 0 0.9l9.9 5.7c0.4 0.2 1.1 0.2 1.5 0l5.3-3c0.4-0.2 0.4-0.6 0-0.9l-9.9-5.7c-0.4-0.3-1.1-0.3-1.5 0l-5.3 3z"/>
			<path class="st54" d="m156.4 349.8c-0.1 0.1-0.1 0.1 0 0 0 0.1 0.1 0.1 0.1 0.1l0.7-0.4v-0.1s-0.1 0-0.1 0l-0.7 0.4z"/>
			<path class="st54" d="m156 350v0c0 0.1 0.1 0.1 0.2 0.1s0-0.1 0-0.1h-0.2z"/>
						<linearGradient id="bx" x1="1096.1" x2="1106.6" y1="695.4" y2="697.7" gradientTransform="matrix(-1 0 0 1 1262.5 -343.51)" gradientUnits="userSpaceOnUse">
						<stop stop-color="#C9F9FF" offset="0"/>
						<stop stop-color="#C3F8FF" offset=".1376"/>
						<stop stop-color="#B0F4FF" offset=".3299"/>
						<stop stop-color="#93EEFF" offset=".5546"/>
						<stop stop-color="#69E5FF" offset=".8017"/>
						<stop stop-color="#43DDFF" offset="1"/>
					</linearGradient>
					<path class="st55" d="m154.1 351.5c-0.3 0.1-0.3 0.4 0 0.5l9.1 5.3c0.2 0.1 0.6 0.1 0.9 0l5.3-3c0.2-0.1 0.3-0.4 0-0.5l-9.1-5.3c-0.2-0.1-0.6-0.1-0.9 0l-5.3 3z"/>
					<linearGradient id="bw" x1="1094.8" x2="1095.9" y1="699.61" y2="699.61" gradientTransform="matrix(-1 0 0 1 1262.5 -343.51)" gradientUnits="userSpaceOnUse">
					<stop stop-color="#C9F9FF" offset="0"/>
					<stop stop-color="#C3F8FF" offset=".1376"/>
					<stop stop-color="#B0F4FF" offset=".3299"/>
					<stop stop-color="#93EEFF" offset=".5546"/>
					<stop stop-color="#69E5FF" offset=".8017"/>
					<stop stop-color="#43DDFF" offset="1"/>
				</linearGradient>
				<path class="st56" d="m166.6 356.2c-0.1 0.1-0.1 0.2 0 0.2 0.1 0.1 0.3 0.1 0.4 0l0.6-0.4c0.1-0.1 0.1-0.2 0-0.2-0.1-0.1-0.3-0.1-0.4 0l-0.6 0.4z"/>
		<path class="st26" d="m168.7 351.6s-1.4-1-2-1.2c-0.6-0.1-2.1 0.2-2.1 0.2s-0.9 0.1-0.8 0.5 0.4 0.4 0.9 0.4 1.6-0.3 1.6-0.3-0.5 0.1 0.1 0.8 1.3 0.6 1.6 0.3c0.3 0 0.7-0.7 0.7-0.7z"/>
		<g class="st15">
				<linearGradient id="bv" x1="625.37" x2="708.58" y1="443.96" y2="443.96" gradientTransform="matrix(-1 0 0 1 825.78 -343.51)" gradientUnits="userSpaceOnUse">
				<stop stop-color="#7D1EDC" offset=".1969"/>
				<stop stop-color="#12C2E9" offset=".7576"/>
			</linearGradient>
			<path class="st57" d="m119.7 41.4 41.2-23.9c4.5-2.6 10.2-2.6 14.7 0l22.4 13c1.6 0.9 2.5 2.6 2.4 4.3v120.4c0 1.7-0.8 3.4-2.5 4.3l-41.2 23.9c-4.5 2.6-10.2 2.6-14.7 0l-22.4-13c-1.6-1-2.4-2.6-2.4-4.2v-120.6c0.1-1.6 0.9-3.2 2.5-4.2z"/>
		</g>
				<linearGradient id="bu" x1="455.07" x2="192.33" y1="368.75" y2="486" gradientTransform="translate(-262.48 -343.51)" gradientUnits="userSpaceOnUse">
				<stop stop-color="#7D1EDC" offset="0"/>
				<stop stop-color="#12C2E9" offset="1"/>
			</linearGradient>
			<path class="st58" d="m198 30.6-22.4-13c-4.5-2.6-10.2-2.6-14.7 0l-41.2 23.9c-3.3 1.9-3.3 6.6 0 8.5l22.4 13c4.5 2.6 10.2 2.6 14.7 0l41.2-23.9c3.3-1.9 3.3-6.6 0-8.5z"/>
			<linearGradient id="bt" x1="395.35" x2="435.65" y1="381.41" y2="377.23" gradientTransform="translate(-262.48 -343.51)" gradientUnits="userSpaceOnUse">
			<stop stop-color="#43DDFF" offset=".0848"/>
			<stop stop-color="#69E5FF" offset=".2436"/>
			<stop stop-color="#93EEFF" offset=".4414"/>
			<stop stop-color="#B0F4FF" offset=".6213"/>
			<stop stop-color="#C3F8FF" offset=".7753"/>
			<stop stop-color="#C9F9FF" offset=".8855"/>
		</linearGradient>
		<path class="st59" d="m122.8 32.6 38.5-22.1c4.5-2.6 10.2-2.6 14.7 0l19.1 11.3c1.6 0.9 2.5 2.6 2.4 4.3v7.4c0 1.7-0.8 3.4-2.5 4.3l-38.5 22.1c-4.5 2.6-10.2 2.6-14.7 0l-19.1-11.3c-1.6-0.9-2.4-2.6-2.4-4.2v-7.6c0.1-1.6 0.9-3.3 2.5-4.2z"/>
				<linearGradient id="bs" x1="461.42" x2="379.95" y1="496.19" y2="496.19" gradientTransform="translate(-262.48 -343.51)" gradientUnits="userSpaceOnUse">
				<stop stop-color="#5912CD" offset=".1969"/>
				<stop stop-color="#0BA9DF" offset=".7515"/>
			</linearGradient>
			<path class="st60" d="m198 123.9-41.2 23.9c-4.5 2.6-10.2 2.6-14.7 0l-22.4-13c-1.6-0.9-2.4-2.5-2.4-4.1v35.6c0 1.6 0.8 3.3 2.4 4.2l22.4 13c4.5 2.6 10.2 2.6 14.7 0l41.2-23.9c1.7-1 2.5-2.6 2.5-4.3v-35.4c-0.1 1.6-0.9 3.1-2.5 4z"/>
		<g class="st15">
				<linearGradient id="bq" x1="625.37" x2="708.58" y1="371.96" y2="371.96" gradientTransform="matrix(-1 0 0 1 825.78 -343.51)" gradientUnits="userSpaceOnUse">
				<stop stop-color="#7D1EDC" offset=".1969"/>
				<stop stop-color="#12C2E9" offset=".7273"/>
			</linearGradient>
			<path class="st61" d="m119.7 25.8 41.2-23.8c4.5-2.6 10.2-2.6 14.7 0l22.4 13c1.6 0.9 2.5 2.6 2.4 4.3v7.4c0 1.7-0.8 3.4-2.5 4.3l-41.2 23.9c-4.5 2.6-10.2 2.6-14.7 0l-22.4-13c-1.6-0.9-2.4-2.6-2.4-4.2v-7.6c0.1-1.7 0.9-3.4 2.5-4.3z"/>
		</g>
					<g class="st15">
							<g class="st15">
										<linearGradient id="bp" x1="-1714.6" x2="-1696.9" y1="409.3" y2="427.52" gradientTransform="matrix(-1 0 0 1 -1509.5 -343.51)" gradientUnits="userSpaceOnUse">
										<stop stop-color="#78FFD6" offset="0"/>
										<stop stop-color="#72FAD9" offset=".1867"/>
										<stop stop-color="#5FECE2" offset=".4478"/>
										<stop stop-color="#42D4F0" offset=".7511"/>
										<stop stop-color="#24BDFF" offset="1"/>
									</linearGradient>
									<path class="st62" d="m192.3 77c-0.8 0.4-1.4 1.6-1.4 2.4s0.6 1.3 1.4 0.8l1.4-0.8c0.8-0.4 1.4-1.6 1.4-2.5s-0.6-1.3-1.4-0.8l-1.4 0.9z"/>
							</g>
					</g>
					<g class="st15">
								<linearGradient id="bo" x1="-1698" x2="-1670.3" y1="424.58" y2="453.1" gradientTransform="matrix(-1 0 0 1 -1509.5 -343.51)" gradientUnits="userSpaceOnUse">
								<stop stop-color="#12C2E9" offset="0"/>
								<stop stop-color="#7D1EDC" offset="1"/>
							</linearGradient>
							<path class="st63" d="m186 84c0.8-0.4 1.4-1.6 1.4-2.4 0.1 0.9-0.6 2-1.4 2.4z"/>
							<path class="st64" d="m179 84.8c-0.8 0.5-1.4 1.6-1.4 2.5s0.6 1.3 1.4 0.8l7-4.1c0.8-0.4 1.4-1.6 1.4-2.4s-0.6-1.3-1.4-0.8l-7 4z"/>
					</g>
					<g class="st15">
								<linearGradient id="bn" x1="-1711.4" x2="-1644.2" y1="418.12" y2="487.31" gradientTransform="matrix(-1 0 0 1 -1509.5 -343.51)" gradientUnits="userSpaceOnUse">
								<stop stop-color="#78FFD6" offset="0"/>
								<stop stop-color="#72FAD9" offset=".1867"/>
								<stop stop-color="#5FECE2" offset=".4478"/>
								<stop stop-color="#42D4F0" offset=".7511"/>
								<stop stop-color="#24BDFF" offset="1"/>
							</linearGradient>
							<path class="st65" d="m184.2 89c-0.8 0.4-1.4 1.6-1.4 2.5s0.6 1.3 1.4 0.8l9.5-5.5c0.8-0.4 1.4-1.6 1.4-2.4s-0.6-1.3-1.4-0.8l-9.5 5.4z"/>
					</g>
				<path class="st64" d="m175.8 100.8 10.3-5.9 7.8-4.6c0.8-0.4 1.4-0.1 1.4 0.8s-0.6 2-1.4 2.5l-7.8 4.6-10.2 5.9c-0.8 0.5-1.4 0.1-1.4-0.8-0.1-0.9 0.5-2 1.3-2.5z"/>
						<linearGradient id="bm" x1="-1696.7" x2="-1669" y1="424.97" y2="453.49" gradientTransform="matrix(-1 0 0 1 -1509.5 -343.51)" gradientUnits="userSpaceOnUse">
						<stop stop-color="#78FFD6" offset="0"/>
						<stop stop-color="#72FAD9" offset=".1867"/>
						<stop stop-color="#5FECE2" offset=".4478"/>
						<stop stop-color="#42D4F0" offset=".7511"/>
						<stop stop-color="#24BDFF" offset="1"/>
					</linearGradient>
					<path class="st66" d="m161.9 101.9c-0.8 0.5-1.4 1.5-1.4 2.5 0 0.9 0.6 1.3 1.4 0.8l17.3-9.9c0.8-0.5 1.4-1.5 1.4-2.5 0-0.9-0.6-1.3-1.4-0.8l-17.3 9.9z"/>
					<path class="st64" d="m161.9 108.8c-0.8 0.5-1.4 1.5-1.4 2.5 0 0.9 0.6 1.3 1.4 0.8l1.5-0.9c0.8-0.5 1.4-1.5 1.4-2.5 0-0.9-0.6-1.3-1.4-0.8l-1.5 0.9z"/>
						<linearGradient id="bl" x1="-1699.3" x2="-1671.6" y1="429.04" y2="457.55" gradientTransform="matrix(-1 0 0 1 -1509.5 -343.51)" gradientUnits="userSpaceOnUse">
						<stop stop-color="#78FFD6" offset="0"/>
						<stop stop-color="#72FAD9" offset=".1867"/>
						<stop stop-color="#5FECE2" offset=".4478"/>
						<stop stop-color="#42D4F0" offset=".7511"/>
						<stop stop-color="#24BDFF" offset="1"/>
					</linearGradient>
					<path class="st67" d="m169.1 104.8c-0.8 0.5-1.4 1.5-1.4 2.5 0 0.9 0.6 1.3 1.4 0.8l1.4-0.8c0.8-0.5 1.4-1.5 1.4-2.5 0-0.9-0.6-1.3-1.4-0.8l-1.4 0.8z"/>
					<g class="st15">
								<linearGradient id="bk" x1="-1694.4" x2="-1666.7" y1="421.1" y2="449.61" gradientTransform="matrix(-1 0 0 1 -1509.5 -343.51)" gradientUnits="userSpaceOnUse">
								<stop stop-color="#78FFD6" offset="0"/>
								<stop stop-color="#72FAD9" offset=".1867"/>
								<stop stop-color="#5FECE2" offset=".4478"/>
								<stop stop-color="#42D4F0" offset=".7511"/>
								<stop stop-color="#24BDFF" offset="1"/>
							</linearGradient>
							<path class="st68" d="m171.6 89.1c-0.8 0.5-1.4 1.6-1.4 2.5s0.6 1.3 1.4 0.8l2-1.1c0.8-0.4 1.4-1.6 1.4-2.4s-0.6-1.3-1.4-0.8l-2 1z"/>
							<g class="st15">
									<path class="st64" d="m161.9 94.7c-0.8 0.5-1.4 1.5-1.4 2.5 0 0.9 0.6 1.3 1.4 0.8l4.2-2.5c0.8-0.5 1.4-1.5 1.4-2.5 0-0.9-0.6-1.3-1.4-0.8l-4.2 2.5z"/>
							</g>
					</g>
					<g class="st15">
							<g class="st15">
										<linearGradient id="bj" x1="-1714.6" x2="-1696.9" y1="432.6" y2="450.83" gradientTransform="matrix(-1 0 0 1 -1509.5 -343.51)" gradientUnits="userSpaceOnUse">
										<stop stop-color="#78FFD6" offset="0"/>
										<stop stop-color="#72FAD9" offset=".1867"/>
										<stop stop-color="#5FECE2" offset=".4478"/>
										<stop stop-color="#42D4F0" offset=".7511"/>
										<stop stop-color="#24BDFF" offset="1"/>
									</linearGradient>
									<path class="st69" d="m192.3 100.3c-0.8 0.5-1.4 1.5-1.4 2.5 0 0.9 0.6 1.3 1.4 0.8l1.4-0.8c0.8-0.5 1.4-1.5 1.4-2.5 0-0.9-0.6-1.3-1.4-0.8l-1.4 0.8z"/>
							</g>
					</g>
					<g class="st15">
								<linearGradient id="bi" x1="-1698" x2="-1670.3" y1="447.84" y2="476.36" gradientTransform="matrix(-1 0 0 1 -1509.5 -343.51)" gradientUnits="userSpaceOnUse">
								<stop stop-color="#12C2E9" offset="0"/>
								<stop stop-color="#7D1EDC" offset="1"/>
							</linearGradient>
							<path class="st70" d="m186 107.3c0.8-0.5 1.4-1.5 1.4-2.5 0.1 1-0.6 2.1-1.4 2.5z"/>
							<path class="st64" d="m179 108.1c-0.8 0.5-1.4 1.5-1.4 2.5 0 0.9 0.6 1.3 1.4 0.8l7-4c0.8-0.5 1.4-1.5 1.4-2.5 0-0.9-0.6-1.3-1.4-0.8l-7 4z"/>
					</g>
					<g class="st15">
								<linearGradient id="bh" x1="-1711.4" x2="-1644.2" y1="441.4" y2="510.59" gradientTransform="matrix(-1 0 0 1 -1509.5 -343.51)" gradientUnits="userSpaceOnUse">
								<stop stop-color="#78FFD6" offset="0"/>
								<stop stop-color="#72FAD9" offset=".1867"/>
								<stop stop-color="#5FECE2" offset=".4478"/>
								<stop stop-color="#42D4F0" offset=".7511"/>
								<stop stop-color="#24BDFF" offset="1"/>
							</linearGradient>
							<path class="st71" d="m184.2 112.3c-0.8 0.5-1.4 1.5-1.4 2.5 0 0.9 0.6 1.3 1.4 0.8l9.5-5.5c0.8-0.5 1.4-1.5 1.4-2.5 0-0.9-0.6-1.3-1.4-0.8l-9.5 5.5z"/>
					</g>
				<path class="st64" d="m175.8 124.1 10.3-5.9 7.8-4.6c0.8-0.5 1.4-0.1 1.4 0.8s-0.6 2-1.4 2.5l-7.8 4.6-10.2 5.9c-0.8 0.5-1.4 0.1-1.4-0.8-0.1-1 0.5-2.1 1.3-2.5z"/>
						<linearGradient id="bf" x1="-1696.7" x2="-1669" y1="448.2" y2="476.72" gradientTransform="matrix(-1 0 0 1 -1509.5 -343.51)" gradientUnits="userSpaceOnUse">
						<stop stop-color="#78FFD6" offset="0"/>
						<stop stop-color="#72FAD9" offset=".1867"/>
						<stop stop-color="#5FECE2" offset=".4478"/>
						<stop stop-color="#42D4F0" offset=".7511"/>
						<stop stop-color="#24BDFF" offset="1"/>
					</linearGradient>
					<path class="st72" d="m161.9 125.1c-0.8 0.5-1.4 1.5-1.4 2.5 0 0.9 0.6 1.3 1.4 0.8l17.3-9.9c0.8-0.5 1.4-1.5 1.4-2.5 0-0.9-0.6-1.3-1.4-0.8l-17.3 9.9z"/>
					<path class="st64" d="m161.9 132.1c-0.8 0.5-1.4 1.5-1.4 2.5 0 0.9 0.6 1.3 1.4 0.8l1.5-0.9c0.8-0.5 1.4-1.5 1.4-2.5 0-0.9-0.6-1.3-1.4-0.8l-1.5 0.9z"/>
						<linearGradient id="be" x1="-1699.2" x2="-1671.5" y1="452.27" y2="480.79" gradientTransform="matrix(-1 0 0 1 -1509.5 -343.51)" gradientUnits="userSpaceOnUse">
						<stop stop-color="#78FFD6" offset="0"/>
						<stop stop-color="#72FAD9" offset=".1867"/>
						<stop stop-color="#5FECE2" offset=".4478"/>
						<stop stop-color="#42D4F0" offset=".7511"/>
						<stop stop-color="#24BDFF" offset="1"/>
					</linearGradient>
					<path class="st73" d="m169.1 128c-0.8 0.5-1.4 1.5-1.4 2.5 0 0.9 0.6 1.3 1.4 0.8l1.4-0.8c0.8-0.5 1.4-1.5 1.4-2.5 0-0.9-0.6-1.3-1.4-0.8l-1.4 0.8z"/>
					<g class="st15">
								<linearGradient id="bd" x1="-1694.4" x2="-1666.7" y1="444.37" y2="472.88" gradientTransform="matrix(-1 0 0 1 -1509.5 -343.51)" gradientUnits="userSpaceOnUse">
								<stop stop-color="#78FFD6" offset="0"/>
								<stop stop-color="#72FAD9" offset=".1867"/>
								<stop stop-color="#5FECE2" offset=".4478"/>
								<stop stop-color="#42D4F0" offset=".7511"/>
								<stop stop-color="#24BDFF" offset="1"/>
							</linearGradient>
							<path class="st74" d="m171.6 112.4c-0.8 0.5-1.4 1.5-1.4 2.5 0 0.9 0.6 1.3 1.4 0.8l2-1.1c0.8-0.5 1.4-1.5 1.4-2.5 0-0.9-0.6-1.3-1.4-0.8l-2 1.1z"/>
							<g class="st15">
									<path class="st64" d="m161.9 118c-0.8 0.5-1.4 1.5-1.4 2.5 0 0.9 0.6 1.3 1.4 0.8l4.2-2.5c0.8-0.5 1.4-1.5 1.4-2.5 0-0.9-0.6-1.3-1.4-0.8l-4.2 2.5z"/>
							</g>
					</g>
				<g class="st15">
					<path class="st64" d="m193.7 135.6-14.7 8.7c-0.8 0.5-1.4 1.5-1.4 2.5 0 0.9 0.6 1.3 1.4 0.8l14.7-8.7c0.8-0.5 1.4-1.5 1.4-2.5 0-0.9-0.6-1.3-1.4-0.8z"/>
				</g>
				<g class="st15">
						<path class="st64" d="m184.2 148.4c-0.8 0.5-1.4 1.5-1.4 2.5 0 0.9 0.6 1.3 1.4 0.8l9.5-5.5c0.8-0.5 1.4-1.5 1.4-2.5 0-0.9-0.6-1.3-1.4-0.8l-9.5 5.5z"/>
				</g>
			<path class="st64" d="m175.8 160.2 10.3-5.9 7.8-4.6c0.8-0.5 1.4-0.1 1.4 0.8s-0.6 2-1.4 2.5l-7.8 4.6-10.2 5.9c-0.8 0.5-1.4 0.1-1.4-0.8-0.1-0.9 0.5-2 1.3-2.5z"/>
				<path class="st64" d="m161.9 161.3c-0.8 0.5-1.4 1.5-1.4 2.5 0 0.9 0.6 1.3 1.4 0.8l17.3-9.9c0.8-0.5 1.4-1.5 1.4-2.5 0-0.9-0.6-1.3-1.4-0.8l-17.3 9.9z"/>
			<path class="st64" d="m170.5 163.4-8.5 4.9c-0.8 0.5-1.4 1.5-1.4 2.5 0 0.9 0.6 1.3 1.4 0.8l8.5-4.9c0.8-0.5 1.4-1.5 1.4-2.5 0-0.9-0.7-1.3-1.4-0.8z"/>
			<path class="st64" d="m173.6 147.4-11.7 6.8c-0.8 0.5-1.4 1.5-1.4 2.5 0 0.9 0.6 1.3 1.4 0.8l11.7-6.8c0.8-0.5 1.4-1.5 1.4-2.5 0-0.9-0.6-1.3-1.4-0.8z"/>
					<g class="st15">
							<g class="st15">
										<linearGradient id="bc" x1="-1714.6" x2="-1696.9" y1="385.19" y2="403.42" gradientTransform="matrix(-1 0 0 1 -1509.5 -343.51)" gradientUnits="userSpaceOnUse">
										<stop stop-color="#78FFD6" offset="0"/>
										<stop stop-color="#72FAD9" offset=".1867"/>
										<stop stop-color="#5FECE2" offset=".4478"/>
										<stop stop-color="#42D4F0" offset=".7511"/>
										<stop stop-color="#24BDFF" offset="1"/>
									</linearGradient>
									<path class="st75" d="m192.3 52.9c-0.8 0.4-1.4 1.6-1.4 2.4s0.6 1.3 1.4 0.8l1.4-0.8c0.8-0.4 1.4-1.6 1.4-2.5s-0.6-1.3-1.4-0.8l-1.4 0.9z"/>
							</g>
					</g>
					<g class="st15">
								<linearGradient id="bb" x1="-1698" x2="-1670.2" y1="400.45" y2="428.99" gradientTransform="matrix(-1 0 0 1 -1509.5 -343.51)" gradientUnits="userSpaceOnUse">
								<stop stop-color="#12C2E9" offset="0"/>
								<stop stop-color="#7D1EDC" offset="1"/>
							</linearGradient>
							<path class="st76" d="m186 59.9c0.8-0.4 1.4-1.6 1.4-2.5 0.1 1-0.6 2.1-1.4 2.5z"/>
							<path class="st64" d="m179 60.7c-0.8 0.4-1.4 1.6-1.4 2.5s0.6 1.3 1.4 0.8l7-4.1c0.8-0.4 1.4-1.6 1.4-2.5s-0.6-1.3-1.4-0.8l-7 4.1z"/>
					</g>
					<g class="st15">
								<linearGradient id="ba" x1="-1711.4" x2="-1644.2" y1="394.01" y2="463.21" gradientTransform="matrix(-1 0 0 1 -1509.5 -343.51)" gradientUnits="userSpaceOnUse">
								<stop stop-color="#78FFD6" offset="0"/>
								<stop stop-color="#72FAD9" offset=".1867"/>
								<stop stop-color="#5FECE2" offset=".4478"/>
								<stop stop-color="#42D4F0" offset=".7511"/>
								<stop stop-color="#24BDFF" offset="1"/>
							</linearGradient>
							<path class="st77" d="m184.2 64.9c-0.8 0.4-1.4 1.6-1.4 2.5s0.6 1.3 1.4 0.8l9.5-5.5c0.8-0.4 1.4-1.6 1.4-2.4s-0.6-1.3-1.4-0.8l-9.5 5.4z"/>
					</g>
				<path class="st64" d="m175.8 76.7 10.3-5.9 7.8-4.6c0.8-0.5 1.4-0.1 1.4 0.8s-0.6 2-1.4 2.5l-7.9 4.5-10.2 6c-0.8 0.4-1.4 0.1-1.4-0.8s0.6-2 1.4-2.5z"/>
						<linearGradient id="az" x1="-1696.7" x2="-1669" y1="400.84" y2="429.36" gradientTransform="matrix(-1 0 0 1 -1509.5 -343.51)" gradientUnits="userSpaceOnUse">
						<stop stop-color="#78FFD6" offset="0"/>
						<stop stop-color="#72FAD9" offset=".1867"/>
						<stop stop-color="#5FECE2" offset=".4478"/>
						<stop stop-color="#42D4F0" offset=".7511"/>
						<stop stop-color="#24BDFF" offset="1"/>
					</linearGradient>
					<path class="st78" d="m161.9 77.8c-0.8 0.4-1.4 1.6-1.4 2.4 0 0.9 0.6 1.3 1.4 0.8l17.3-9.9c0.8-0.4 1.4-1.6 1.4-2.5s-0.6-1.3-1.4-0.8l-17.3 10z"/>
					<path class="st64" d="m161.9 84.7c-0.8 0.4-1.4 1.6-1.4 2.4 0 0.9 0.6 1.3 1.4 0.8l1.5-0.9c0.8-0.4 1.4-1.6 1.4-2.5s-0.6-1.3-1.4-0.8l-1.5 1z"/>
						<linearGradient id="ay" x1="-1699.3" x2="-1671.6" y1="404.95" y2="433.46" gradientTransform="matrix(-1 0 0 1 -1509.5 -343.51)" gradientUnits="userSpaceOnUse">
						<stop stop-color="#78FFD6" offset="0"/>
						<stop stop-color="#72FAD9" offset=".1867"/>
						<stop stop-color="#5FECE2" offset=".4478"/>
						<stop stop-color="#42D4F0" offset=".7511"/>
						<stop stop-color="#24BDFF" offset="1"/>
					</linearGradient>
					<path class="st79" d="m169.1 80.7c-0.8 0.5-1.4 1.6-1.4 2.5s0.6 1.3 1.4 0.8l1.4-0.8c0.8-0.4 1.4-1.6 1.4-2.5s-0.6-1.3-1.4-0.8l-1.4 0.8z"/>
					<g class="st15">
								<linearGradient id="ax" x1="-1694.4" x2="-1666.7" y1="396.99" y2="425.51" gradientTransform="matrix(-1 0 0 1 -1509.5 -343.51)" gradientUnits="userSpaceOnUse">
								<stop stop-color="#78FFD6" offset="0"/>
								<stop stop-color="#72FAD9" offset=".1867"/>
								<stop stop-color="#5FECE2" offset=".4478"/>
								<stop stop-color="#42D4F0" offset=".7511"/>
								<stop stop-color="#24BDFF" offset="1"/>
							</linearGradient>
							<path class="st80" d="m171.6 65c-0.8 0.5-1.4 1.6-1.4 2.5s0.6 1.3 1.4 0.8l2-1.1c0.8-0.4 1.4-1.6 1.4-2.4 0-0.9-0.6-1.3-1.4-0.8l-2 1z"/>
							<g class="st15">
									<path class="st64" d="m161.9 70.6c-0.8 0.4-1.4 1.6-1.4 2.4s0.6 1.3 1.4 0.8l4.2-2.4c0.8-0.4 1.4-1.6 1.4-2.5s-0.6-1.3-1.4-0.8l-4.2 2.5z"/>
							</g>
					</g>
		<linearGradient id="aw" x1="-629.03" x2="-532.53" y1="338.1" y2="379.1" gradientTransform="matrix(-1 0 0 1 -399.31 -343.51)" gradientUnits="userSpaceOnUse">
		<stop stop-color="#12C2E9" offset="0"/>
		<stop stop-color="#7D1EDC" offset="1"/>
	</linearGradient>
	<path class="st81" d="m198 15-22.4-13c-4.5-2.6-10.2-2.6-14.7 0l-41.2 23.9c-3.3 1.9-3.3 6.6 0 8.5l22.4 13c4.5 2.6 10.2 2.6 14.7 0l41.2-23.9c3.3-1.9 3.3-6.6 0-8.5z"/>
<path class="st41" d="m252.9 190-80.1 46.2c-2.4 1.3-3.8 3.8-3.8 6.5l-1.6 83.4"/>
<path class="st41" d="m243.3 195.3-72.1 42.6c-2.1 1.3-4.8 1.3-6.9 0.1l-66.5-35.9"/>
<path class="st41" d="m249.2 192-33.6 18.9c-1 0.6-1.6 1.6-1.7 2.8l-1 34.8"/>
<path class="st41" d="m252.2 190.3-36.1 21.4c-1 0.6-2.4 0.7-3.4 0.1l-33.3-17.9"/>
<g transform="matrix(.93739 0 0 .93739 -8.6579 -8.0007)">
		<g class="st15">
			<g class="st15">
					<defs>
						<path id="au" d="m374.6 226.2-2.9 1.8c1-0.6 1.4-1.6 1.4-3.1l2.9-1.8c0 1.5-0.6 2.7-1.4 3.1z"/>
					</defs>
					<clipPath id="at">
						<use xlink:href="#au"/>
					</clipPath>
					<g class="st82">
						<path class="st83" d="m373.1 224.8 2.9-1.8v0.2l-2.9 1.6v0"/>
						<path class="st84" d="M373.1,225l2.9-1.8v0.2l-2.9,1.8V225"/>
						<path class="st85" d="m373.1 225.2 2.9-1.8v0.2l-2.9 1.8v-0.2"/>
						<path class="st86" d="m373.1 225.4 2.9-1.8v0.2l-2.9 1.8v-0.2"/>
						<path class="st87" d="m373.1 225.6 2.9-1.8v0.2l-2.9 1.8c-0.2 0 0 0 0-0.2"/>
						<path class="st88" d="M372.9,226l2.9-1.8v0.2l-2.9,1.8V226"/>
						<path class="st89" d="m372.9 226.2 2.9-1.8v0.2l-2.9 1.8v-0.2"/>
						<path class="st90" d="m372.9 226.3 2.9-1.8c0 0.2 0 0.2-0.2 0.2l-2.9 1.8 0.2-0.2"/>
						<path class="st91" d="m372.7 226.7 2.9-1.8c0 0.2-0.2 0.2-0.2 0.4l-2.9 1.8c0-0.2 0.2-0.4 0.2-0.4"/>
						<path class="st92" d="m372.5 227.1 2.9-1.8c-0.2 0.4-0.6 0.6-0.8 0.8l-2.9 1.8 0.8-0.8"/>
					</g>
			</g>
				<polygon class="st93" points="373.1 192 376.2 190.2 376 223 373.1 224.8"/>
			<g class="st15">
					<defs>
						<path id="as" d="m364.6 182.9 2.9-1.8c1-0.6 2.2-0.4 3.5 0.4l-2.9 1.8c-1.3-0.8-2.7-1-3.5-0.4z"/>
					</defs>
					<clipPath id="ar">
						<use xlink:href="#as"/>
					</clipPath>
					<g class="st94">
						<path class="st92" d="m364.6 182.9 2.9-1.8c0.2 0 0.2-0.2 0.4-0.2l-2.9 1.8c-0.2 0-0.4 0-0.4 0.2"/>
						<path class="st91" d="m365 182.7 2.9-1.8h0.4l-2.9 1.8h-0.4"/>
						<path class="st90" d="m365.4 182.5 2.9-1.8h0.2l-2.9 1.8h-0.2"/>
						<path class="st89" d="m365.6 182.5 2.9-1.8h0.2l-2.9 1.8h-0.2"/>
						<path class="st88" d="m365.8 182.5 2.9-1.8h0.2l-2.9 1.8h-0.2"/>
						<path class="st87" d="m366.2 182.5 2.9-1.8h0.2l-2.9 1.8h-0.2"/>
						<path class="st86" d="m366.4 182.5 2.9-1.8h0.2l-2.9 1.8h-0.2"/>
						<path class="st85" d="m366.6 182.5 2.9-1.8h0.2l-2.9 1.8c0 0.2-0.2 0.2-0.2 0"/>
						<path class="st84" d="m366.8 182.7 2.9-1.8h0.2l-2.9 1.8h-0.2"/>
						<path class="st83" d="M367,182.7l2.9-1.8h0.2l-2.9,1.8H367"/>
						<path class="st95" d="m367.2 182.7 2.9-1.8h0.2l-2.9 1.8c0 0.2-0.2 0-0.2 0"/>
						<path class="st96" d="m367.4 182.9 2.9-1.8h0.2l-2.9 1.8h-0.2"/>
						<path class="st97" d="m367.6 182.9 2.9-1.8h0.2l-2.9 1.8h-0.2"/>
						<path class="st98" d="m367.8 183.1 2.9-1.8s0.2 0 0.2 0.2l-2.9 1.8c0-0.2-0.2-0.2-0.2-0.2"/>
						<path class="st99" d="m368 183.1 2.9-1.8h0.2l-3.1 1.8c0.2 0 0 0 0 0"/>
					</g>
			</g>
			<g class="st15">
					<defs>
						<path id="aq" d="m368.2 183.3 2.9-1.8c2.8 1.6 5.1 5.5 5.1 8.6l-2.9 1.8c0-3.1-2.4-7-5.1-8.6z"/>
					</defs>
					<clipPath id="ap">
						<use xlink:href="#aq"/>
					</clipPath>
					<g class="st100">
						<path class="st99" d="m368.2 183.3 2.9-1.8-2.9 1.8"/>
						<path class="st101" d="m368.2 183.3 2.9-1.8s0.2 0 0.2 0.2l-2.9 1.8c0-0.2 0-0.2-0.2-0.2"/>
						<path class="st102" d="m368.4 183.3 2.9-1.8s0.2 0 0.2 0.2l-2.9 1.8-0.2-0.2"/>
						<path class="st103" d="m368.6 183.5 2.9-1.8 0.2 0.2-2.9 1.8c-0.1 0-0.1-0.2-0.2-0.2"/>
						<path class="st104" d="m368.7 183.7 2.9-1.8 0.2 0.2-2.9 1.8s0-0.2-0.2-0.2"/>
						<path class="st105" d="m369.1 183.9 2.9-1.8 0.2 0.2-2.9 1.8-0.2-0.2"/>
						<path class="st106" d="m369.3 184.1 2.9-1.8 0.2 0.2-2.9 1.8c0-0.2-0.2-0.2-0.2-0.2"/>
						<path class="st107" d="m369.5 184.3 2.9-1.8 0.2 0.2-2.9 1.8c0-0.2-0.2-0.2-0.2-0.2"/>
						<path class="st108" d="m369.7 184.5 2.9-1.8 0.2 0.2-2.9 1.8c0-0.2-0.2-0.2-0.2-0.2"/>
						<path class="st109" d="m369.9 184.7 2.9-1.8 0.2 0.2-2.9 1.8-0.2-0.2"/>
						<path class="st27" d="m370.1 184.9 2.9-1.8 0.2 0.2-2.9 1.8-0.2-0.2"/>
						<path class="st27" d="m370.3 185.1 2.9-1.8 0.2 0.2-2.9 1.8-0.2-0.2"/>
						<path class="st27" d="m370.5 185.3 2.9-1.8 0.2 0.2-2.9 1.8s-0.2 0-0.2-0.2"/>
						<path class="st27" d="m370.7 185.5 2.9-1.8 0.2 0.2-2.9 1.8s-0.2 0-0.2-0.2"/>
						<path class="st27" d="m370.9 185.9 2.9-1.8c0.2 0.2 0.2 0.4 0.4 0.4l-2.9 1.8-0.4-0.4"/>
						<path class="st27" d="m371.3 186.3 2.9-1.8c0.2 0.2 0.2 0.4 0.4 0.6l-2.9 1.8c-0.2-0.2-0.2-0.4-0.4-0.6"/>
						<path class="st27" d="m371.7 186.9 2.9-1.8c0 0.2 0.2 0.2 0.2 0.4l-2.9 1.8s-0.2-0.2-0.2-0.4"/>
						<path class="st27" d="m371.9 187.5 2.9-1.8c0 0.2 0.2 0.2 0.2 0.4l-2.9 1.8c0-0.2-0.2-0.4-0.2-0.4"/>
						<path class="st27" d="m372.1 187.7 2.9-1.8s0 0.2 0.2 0.2l-2.9 1.8c-0.2-0.1-0.2-0.2-0.2-0.2"/>
						<path class="st27" d="m372.1 187.8 2.9-1.8s0 0.2 0.2 0.2l-2.9 1.8-0.2-0.2"/>
						<path class="st27" d="m372.3 188.2 2.9-1.8s0 0.2 0.2 0.2l-2.9 1.8-0.2-0.2"/>
						<path class="st109" d="m372.5 188.4 2.9-1.8s0 0.2 0.2 0.2l-2.9 1.8c-0.2 0-0.2-0.2-0.2-0.2"/>
						<path class="st108" d="m372.5 188.6 2.9-1.8v0.2l-2.9 1.8v-0.2"/>
						<path class="st107" d="m372.7 188.8 2.9-1.8v0.2l-2.9 1.8v-0.2"/>
						<path class="st106" d="m372.7 189.2 2.9-1.8v0.2l-2.9 1.8v-0.2"/>
						<path class="st105" d="m372.7 189.4 2.9-1.8v0.2l-2.9 1.8c0.2 0 0.2-0.2 0-0.2"/>
						<path class="st104" d="m372.9 189.6 2.9-1.8v0.2l-2.9 1.8v-0.2"/>
						<path class="st103" d="M372.9,190l2.9-1.8v0.2l-2.9,1.8V190"/>
						<path class="st102" d="m372.9 190.2 2.9-1.8v0.2l-2.9 1.8c0.2 0 0.2 0 0-0.2"/>
						<path class="st101" d="m373.1 190.4 2.9-1.8v0.2l-2.9 1.8v-0.2"/>
						<path class="st99" d="m373.1 190.8 2.9-1.8v0.2l-2.9 1.8v-0.2"/>
						<path class="st98" d="M373.1,191l2.9-1.8v0.2l-2.9,1.8V191"/>
						<path class="st97" d="m373.1 191.2 2.9-1.8v0.2l-2.9 1.8v-0.2"/>
						<path class="st96" d="m373.1 191.6 2.9-1.8v0.2l-2.9 1.8v-0.2"/>
						<path class="st95" d="m373.1 191.8 2.9-1.8v0.2l-2.9 1.8v-0.2"/>
					</g>
			</g>
				<path class="st110" d="m368.2 183.3c2.8 1.6 5.1 5.5 5.1 8.6v32.8c0 3.1-2.2 4.3-4.9 2.8h-0.2c-2.8-1.6-4.9-5.3-5.1-8.6v-32.8c0-3.2 2.3-4.5 5.1-2.8z"/>
		</g>
		<g class="st15">
			<g class="st15">
					<defs>
						<path id="ao" d="m357.7 233.2-2.9 1.8c0.8-0.6 1.4-1.6 1.4-3.1l2.9-1.8c0 1.4-0.6 2.5-1.4 3.1z"/>
					</defs>
					<clipPath id="an">
						<use xlink:href="#ao"/>
					</clipPath>
					<g class="st111">
						<path class="st83" d="m356.2 231.7 2.9-1.8v0.2l-2.9 1.6v0"/>
						<path class="st84" d="m356.2 231.8 2.9-1.8v0.2l-2.9 1.8v-0.2"/>
						<path class="st85" d="m356.2 232 2.9-1.8v0.2l-2.9 1.8v-0.2"/>
						<path class="st86" d="m356.2 232.4 2.9-1.8v0.2l-2.9 1.8v-0.2"/>
						<path class="st87" d="m356.2 232.6 2.9-1.8v0.2l-2.9 1.8v-0.2"/>
						<path class="st88" d="m356.2 232.8 2.9-1.8v0.2l-2.9 1.8c-0.2 0 0-0.2 0-0.2"/>
						<path class="st89" d="m356 233 2.9-1.8v0.2l-2.9 1.8v-0.2"/>
						<path class="st90" d="m356 233.4 2.9-1.8c0 0.2 0 0.2-0.2 0.4l-2.9 1.8c0-0.2 0.2-0.4 0.2-0.4"/>
						<path class="st91" d="m355.8 233.6 2.9-1.8c0 0.2-0.2 0.2-0.2 0.4l-2.9 1.8c0.2-0.2 0.2-0.2 0.2-0.4"/>
						<path class="st92" d="m355.6 234 2.9-1.8c-0.2 0.4-0.6 0.6-0.8 0.8l-2.9 1.8c0.4-0.2 0.6-0.4 0.8-0.8"/>
					</g>
			</g>
				<polygon class="st93" points="356.2 231.5 359.1 229.7 359.1 230.1 356.2 231.7"/>
				<polygon class="st93" points="356.4 165.8 359.3 164.1 359.1 229.7 356.2 231.5"/>
			<g class="st15">
					<defs>
						<path id="am" d="m347.7 156.8 2.9-1.8c1-0.6 2.2-0.4 3.5 0.4l-2.9 1.8c-1.1-0.8-2.5-1-3.5-0.4z"/>
					</defs>
					<clipPath id="al">
						<use xlink:href="#am"/>
					</clipPath>
					<g class="st112">
						<path class="st92" d="m347.7 156.8 2.9-1.8c0.2 0 0.2-0.2 0.4-0.2l-2.9 1.8s-0.2 0.2-0.4 0.2"/>
						<path class="st91" d="m348.3 156.6 2.9-1.8h0.4l-2.9 1.8h-0.4"/>
						<path class="st90" d="m348.5 156.6 2.9-1.8h0.2l-2.9 1.8c0-0.2 0-0.2-0.2 0"/>
						<path class="st89" d="m348.9 156.4 2.9-1.8h0.2l-2.9 1.8h-0.2"/>
						<path class="st88" d="m349.1 156.4 2.9-1.8h0.2l-2.9 1.8h-0.2"/>
						<path class="st87" d="m349.3 156.4 2.9-1.8h0.2l-2.9 1.8h-0.2"/>
						<path class="st86" d="m349.5 156.4 2.9-1.8h0.2l-2.9 1.8c0 0.2 0 0-0.2 0"/>
						<path class="st85" d="m349.9 156.6 2.9-1.8h0.2l-2.9 1.8h-0.2"/>
						<path class="st84" d="m350.1 156.6 2.9-1.8h0.2l-2.9 1.8h-0.2"/>
						<path class="st83" d="m350.3 156.6 2.9-1.8h0.2l-2.9 1.8h-0.2"/>
						<path class="st95" d="m350.5 156.6 2.9-1.8h0.2l-2.9 1.8c-0.2 0.2-0.2 0.2-0.2 0"/>
						<path class="st96" d="m350.7 156.8 2.9-1.8h0.2l-2.9 1.8h-0.2"/>
						<path class="st97" d="m350.9 156.8 2.9-1.8h0.2l-2.9 1.8c-0.2 0.2-0.2 0-0.2 0"/>
						<path class="st98" d="m351.1 157 2.9-1.8s0.2 0 0.2 0.2l-2.9 1.8c0-0.2-0.2-0.2-0.2-0.2"/>
						<path class="st99" d="m351.3 157 2.9-1.8h0.2l-3.1 1.8v0"/>
					</g>
			</g>
			<g class="st15">
					<defs>
						<path id="aj" d="m351.5 157.2 2.9-1.8c2.8 1.6 5.1 5.5 5.1 8.6l-2.9 1.8c-0.2-3.1-2.4-7-5.1-8.6z"/>
					</defs>
					<clipPath id="ai">
						<use xlink:href="#aj"/>
					</clipPath>
					<g class="st113">
						<path class="st99" d="m351.5 157.2 2.9-1.8-2.9 1.8"/>
						<path class="st101" d="m351.5 157.2 2.9-1.8s0.2 0 0.2 0.2l-2.9 1.8c0-0.2-0.2-0.2-0.2-0.2"/>
						<path class="st102" d="m351.7 157.4 2.9-1.8s0.2 0 0.2 0.2l-2.9 1.8c0-0.2-0.2-0.2-0.2-0.2"/>
						<path class="st103" d="m351.9 157.4 2.9-1.8 0.2 0.2-2.9 1.8-0.2-0.2"/>
						<path class="st104" d="m352.1 157.6 2.9-1.8 0.2 0.2-2.9 1.8c-0.1 0-0.1-0.2-0.2-0.2"/>
						<path class="st105" d="m352.2 157.8 2.9-1.8 0.2 0.2-2.9 1.8s0-0.2-0.2-0.2"/>
						<path class="st106" d="m352.6 158 2.9-1.8 0.2 0.2-2.9 1.8c-0.2 0-0.2-0.2-0.2-0.2"/>
						<path class="st107" d="m352.8 158.2 2.9-1.8 0.2 0.2-2.9 1.8c-0.2 0-0.2-0.2-0.2-0.2"/>
						<path class="st108" d="m353 158.4 2.9-1.8 0.2 0.2-2.9 1.8c-0.2 0-0.2-0.2-0.2-0.2"/>
						<path class="st109" d="m353.2 158.6 2.9-1.8 0.2 0.2-2.9 1.8-0.2-0.2"/>
						<path class="st27" d="m353.4 158.8 2.9-1.8 0.2 0.2-2.9 1.8-0.2-0.2"/>
						<path class="st27" d="m353.6 159 2.9-1.8 0.2 0.2-2.9 1.8s-0.2 0-0.2-0.2"/>
						<path class="st27" d="m353.8 159.2 2.9-1.8 0.2 0.2-2.9 1.8s-0.2 0-0.2-0.2"/>
						<path class="st27" d="m354 159.6 2.9-1.8 0.2 0.2-2.9 1.8-0.2-0.2"/>
						<path class="st27" d="m354.2 159.8 2.9-1.8c0.2 0.2 0.2 0.4 0.4 0.4l-2.9 1.8c-0.2 0-0.2-0.2-0.4-0.4"/>
						<path class="st27" d="m354.6 160.2 2.9-1.8c0.2 0.2 0.2 0.4 0.4 0.6l-2.9 1.8c-0.2-0.3-0.4-0.5-0.4-0.6"/>
						<path class="st27" d="m355 160.7 2.9-1.8c0 0.2 0.2 0.2 0.2 0.4l-2.9 1.8c-0.2 0-0.2-0.2-0.2-0.4"/>
						<path class="st27" d="m355.2 161.3 2.9-1.8c0 0.2 0.2 0.2 0.2 0.4l-2.9 1.8c-0.2-0.2-0.2-0.4-0.2-0.4"/>
						<path class="st27" d="m355.4 161.5 2.9-1.8s0 0.2 0.2 0.2l-2.9 1.8c-0.2 0-0.2 0-0.2-0.2"/>
						<path class="st27" d="m355.4 161.9 2.9-1.8s0 0.2 0.2 0.2l-2.9 1.8c0-0.2-0.2-0.2-0.2-0.2"/>
						<path class="st27" d="m355.6 162.1 2.9-1.8s0 0.2 0.2 0.2l-2.9 1.8c-0.2 0-0.2-0.2-0.2-0.2"/>
						<path class="st109" d="m355.6 162.3 2.9-1.8s0 0.2 0.2 0.2l-2.9 1.8-0.2-0.2"/>
						<path class="st108" d="m355.8 162.5 2.9-1.8v0.2l-2.9 1.8v-0.2"/>
						<path class="st107" d="m355.8 162.9 2.9-1.8v0.2l-2.9 1.8c0.2-0.2 0-0.2 0-0.2"/>
						<path class="st106" d="m356 163.1 2.9-1.8v0.2l-2.9 1.8v-0.2"/>
						<path class="st105" d="m356 163.3 2.9-1.8v0.2l-2.9 1.8v-0.2"/>
						<path class="st104" d="m356.2 163.7 2.9-1.8v0.2l-2.9 1.8v-0.2"/>
						<path class="st103" d="m356.2 163.9 2.9-1.8v0.2l-2.9 1.8v-0.2"/>
						<path class="st102" d="m356.2 164.1 2.9-1.8v0.2l-2.9 1.8v-0.2"/>
						<path class="st101" d="m356.4 164.5 2.9-1.8v0.2l-2.9 1.8v-0.2"/>
						<path class="st99" d="m356.4 164.7 2.9-1.8v0.2l-2.9 1.8v-0.2"/>
						<path class="st98" d="m356.4 164.9 2.9-1.8v0.2l-2.9 1.8v-0.2"/>
						<path class="st97" d="m356.4 165.1 2.9-1.8v0.2l-2.9 1.8v-0.2"/>
						<path class="st96" d="m356.4 165.5 2.9-1.8v0.2l-2.9 1.8v-0.2"/>
						<path class="st95" d="m356.4 165.7 2.9-1.8v0.2l-2.9 1.8v-0.2"/>
					</g>
			</g>
				<path class="st110" d="m351.5 157.2c2.8 1.6 5.1 5.5 5.1 8.6l-0.4 65.6v0.2c0 3.1-2.4 4.3-5.1 2.8-2.9-1.8-5.1-5.7-5.1-8.8l0.2-65.6c0.2-3.2 2.5-4.4 5.3-2.8z"/>
		</g>
		<g class="st15">
			<g class="st15">
					<defs>
						<path id="ah" d="m340.9 252.3-2.9 1.8c1-0.6 1.4-1.6 1.4-3.1l2.9-1.8c-0.1 1.3-0.5 2.5-1.4 3.1z"/>
					</defs>
					<clipPath id="ag">
						<use xlink:href="#ah"/>
					</clipPath>
					<g class="st114">
						<polyline class="st95" points="339.3 250.7 342.2 248.9 342.2 248.9 339.3 250.7 339.3 250.7"/>
						<path class="st83" d="m339.3 250.7 2.9-1.8v0.2l-2.9 1.8v-0.2"/>
						<path class="st84" d="m339.3 250.9 2.9-1.8v0.2l-2.9 1.8v-0.2"/>
						<path class="st85" d="m339.3 251.3 2.9-1.8v0.2l-2.9 1.8v-0.2"/>
						<path class="st86" d="m339.3 251.5 2.9-1.8v0.2l-2.9 1.8v-0.2"/>
						<path class="st87" d="m339.3 251.7 2.9-1.8v0.2l-2.9 1.8v-0.2"/>
						<path class="st88" d="m339.3 251.9 2.9-1.8v0.2l-2.9 1.8v-0.2"/>
						<path class="st89" d="m339.1 252.3 2.9-1.8v0.2l-2.9 1.8v-0.2"/>
						<path class="st90" d="m339.1 252.5 2.9-1.8c0 0.2 0 0.2-0.2 0.2l-2.9 1.8c0.2 0 0.2-0.2 0.2-0.2"/>
						<path class="st91" d="m338.9 252.7 2.9-1.8c0 0.2-0.2 0.2-0.2 0.4l-2.9 1.8c0.2 0 0.2-0.2 0.2-0.4"/>
						<path class="st92" d="m338.7 253.1 2.9-1.8c-0.2 0.4-0.6 0.6-0.8 0.8l-2.9 1.8c0.4-0.1 0.6-0.4 0.8-0.8"/>
					</g>
			</g>
				<polygon class="st93" points="339.7 127.2 342.6 125.6 342.2 248.9 339.3 250.7"/>
			<g class="st15">
					<defs>
						<path id="af" d="m331 118.1 2.9-1.8c1-0.6 2.2-0.4 3.5 0.4l-2.9 1.8c-1.3-0.8-2.5-0.8-3.5-0.4z"/>
					</defs>
					<clipPath id="ae">
						<use xlink:href="#af"/>
					</clipPath>
					<g class="st115">
						<path class="st92" d="m331 118.1 2.9-1.8c0.2 0 0.2-0.2 0.4-0.2l-2.9 1.8c0 0.2-0.2 0.2-0.4 0.2"/>
						<path class="st91" d="m331.4 117.9 2.9-1.8h0.4l-2.9 1.8h-0.4"/>
						<path class="st90" d="m331.8 117.9 2.9-1.8h0.2l-2.9 1.8h-0.2"/>
						<path class="st89" d="m332.2 117.9 2.9-1.8h0.2l-2.9 1.8h-0.2"/>
						<path class="st88" d="m332.4 117.9 2.9-1.8h0.2l-2.9 1.8h-0.2"/>
						<path class="st87" d="m332.6 117.9 2.9-1.8h0.2l-2.9 1.8h-0.2"/>
						<path class="st86" d="m332.8 117.9 2.9-1.8h0.2l-2.9 1.8h-0.2"/>
						<path class="st85" d="m333 117.9 2.9-1.8h0.2l-2.9 1.8h-0.2"/>
						<path class="st84" d="m333.4 117.9 2.9-1.8h0.2l-2.9 1.8h-0.2"/>
						<path class="st83" d="m333.6 117.9 2.9-1.8h0.2l-2.9 1.8c-0.2 0.2-0.2 0-0.2 0"/>
						<path class="st95" d="m333.8 118.1 2.9-1.8h0.2l-2.9 1.8h-0.2"/>
						<path class="st96" d="m334 118.1 2.9-1.8h0.2l-2.9 1.8h-0.2"/>
						<path class="st97" d="m334.2 118.3 2.9-1.8h0.2l-2.9 1.8h-0.2"/>
						<path class="st98" d="m334.4 118.3 2.9-1.8s0.2 0 0.2 0.2l-2.9 1.8-0.2-0.2"/>
						<path class="st99" d="m334.6 118.5 2.9-1.8h0.2l-3.1 1.8"/>
					</g>
			</g>
			<g class="st15">
					<defs>
						<path id="ad" d="m334.8 118.5 2.9-1.8c2.8 1.6 5.1 5.5 5.1 8.6l-2.9 1.8c-0.2-3.1-2.4-7-5.1-8.6z"/>
					</defs>
					<clipPath id="ac">
						<use xlink:href="#ad"/>
					</clipPath>
					<g class="st116">
						<path class="st99" d="m334.8 118.5 2.9-1.8-2.9 1.8"/>
						<path class="st101" d="m334.8 118.5 2.9-1.8s0.2 0 0.2 0.2l-2.9 1.8-0.2-0.2"/>
						<path class="st102" d="m335 118.7 2.9-1.8s0.2 0 0.2 0.2l-2.9 1.8c0-0.2-0.2-0.2-0.2-0.2"/>
						<path class="st103" d="m335.2 118.9 2.9-1.8 0.2 0.2-2.9 1.8c0-0.2-0.2-0.2-0.2-0.2"/>
						<path class="st104" d="m335.4 118.9 2.9-1.8 0.2 0.2-2.9 1.8s-0.2 0-0.2-0.2"/>
						<path class="st105" d="m335.6 119.1 2.9-1.8 0.2 0.2-2.9 1.8c-0.1 0-0.1 0-0.2-0.2"/>
						<path class="st106" d="m335.7 119.3 2.9-1.8 0.2 0.2-2.9 1.8s0-0.2-0.2-0.2"/>
						<path class="st107" d="m336.1 119.5 2.9-1.8 0.2 0.2-2.9 1.8c-0.2 0-0.2-0.2-0.2-0.2"/>
						<path class="st108" d="m336.3 119.7 2.9-1.8 0.2 0.2-2.9 1.8c-0.2 0-0.2 0-0.2-0.2"/>
						<path class="st109" d="m336.5 119.9 2.9-1.8 0.2 0.2-2.9 1.8c-0.2 0-0.2 0-0.2-0.2"/>
						<path class="st27" d="m336.7 120.1 2.9-1.8 0.2 0.2-2.9 1.8c-0.2 0-0.2 0-0.2-0.2"/>
						<path class="st27" d="m336.9 120.3 2.9-1.8 0.2 0.2-2.9 1.8c-0.2 0-0.2 0-0.2-0.2"/>
						<path class="st27" d="m337.1 120.7 2.9-1.8 0.2 0.2-2.9 1.8-0.2-0.2"/>
						<path class="st27" d="m337.3 120.9 2.9-1.8 0.2 0.2-2.9 1.8-0.2-0.2"/>
						<path class="st27" d="m337.5 121.1 2.9-1.8c0.2 0.2 0.2 0.4 0.4 0.4l-2.9 1.8c-0.2 0-0.4-0.2-0.4-0.4"/>
						<path class="st27" d="m337.9 121.7 2.9-1.8c0.2 0.2 0.2 0.4 0.4 0.6l-2.9 1.8c-0.2-0.3-0.4-0.5-0.4-0.6"/>
						<path class="st27" d="m338.1 122.2 2.9-1.8c0 0.2 0.2 0.2 0.2 0.4l-2.9 1.8c0-0.2 0-0.4-0.2-0.4"/>
						<path class="st27" d="m338.5 122.6 2.9-1.8c0 0.2 0.2 0.2 0.2 0.4l-2.9 1.8c-0.2-0.2-0.2-0.4-0.2-0.4"/>
						<path class="st27" d="m338.7 123 2.9-1.8s0 0.2 0.2 0.2l-2.9 1.8-0.2-0.2"/>
						<path class="st27" d="m338.7 123.2 2.9-1.8s0 0.2 0.2 0.2l-2.9 1.8-0.2-0.2"/>
						<path class="st27" d="m338.9 123.4 2.9-1.8s0 0.2 0.2 0.2l-2.9 1.8c-0.2 0-0.2 0-0.2-0.2"/>
						<path class="st109" d="m338.9 123.6 2.9-1.8s0 0.2 0.2 0.2l-2.9 1.8s-0.2 0-0.2-0.2"/>
						<path class="st108" d="m339.1 124 2.9-1.8v0.2l-2.9 1.8v-0.2"/>
						<path class="st107" d="m339.1 124.2 2.9-1.8v0.2l-2.9 1.8c0.2 0 0-0.2 0-0.2"/>
						<path class="st106" d="m339.3 124.4 2.9-1.8v0.2l-2.9 1.8v-0.2"/>
						<path class="st105" d="m339.3 124.6 2.9-1.8v0.2l-2.9 1.8v-0.2"/>
						<path class="st104" d="m339.5 125 2.9-1.8v0.2l-2.9 1.8v-0.2"/>
						<path class="st103" d="m339.5 125.2 2.9-1.8v0.2l-2.9 1.8v-0.2"/>
						<path class="st102" d="m339.5 125.6 2.9-1.8v0.2l-2.9 1.8v-0.2"/>
						<path class="st101" d="m339.5 125.8 2.9-1.8v0.2l-2.9 1.8c0.2 0 0.2-0.2 0-0.2"/>
						<path class="st99" d="m339.7 126 2.9-1.8v0.2l-2.9 1.8v-0.2"/>
						<path class="st98" d="m339.7 126.2 2.9-1.8v0.2l-2.9 1.8v-0.2"/>
						<path class="st97" d="m339.7 126.6 2.9-1.8v0.2l-2.9 1.8v-0.2"/>
						<path class="st96" d="m339.7 126.8 2.9-1.8v0.2l-2.9 1.8v-0.2"/>
						<path class="st95" d="m339.7 127 2.9-1.8v0.2l-2.9 1.8v-0.2"/>
					</g>
			</g>
				<path class="st110" d="m334.8 118.5c2.8 1.6 5.1 5.5 5.1 8.6l-0.4 123.6c0 3.1-2.4 4.5-5.1 2.9-2.8-1.6-5.1-5.5-5.1-8.6l0.4-123.6c0-3.3 2.1-4.5 5.1-2.9z"/>
		</g>
		<g class="st15">
			<g class="st15">
					<defs>
						<path id="ab" d="m324.2 208.9-2.9 1.8c1-0.6 1.4-1.6 1.4-3.1l2.9-1.8c-0.1 1.3-0.5 2.5-1.4 3.1z"/>
					</defs>
					<clipPath id="aa">
						<use xlink:href="#ab"/>
					</clipPath>
					<g class="st117">
						<polyline class="st95" points="322.6 207.3 325.5 205.5 325.5 205.5 322.6 207.3 322.6 207.3"/>
						<path class="st83" d="m322.6 207.3 2.9-1.8v0.2l-2.9 1.8v-0.2"/>
						<path class="st84" d="m322.6 207.5 2.9-1.8v0.2l-2.9 1.8v-0.2"/>
						<path class="st85" d="m322.6 207.7 2.9-1.8v0.2l-2.9 1.8v-0.2"/>
						<path class="st86" d="m322.6 208.1 2.9-1.8v0.2l-2.9 1.8v-0.2"/>
						<path class="st87" d="m322.6 208.3 2.9-1.8v0.2l-2.9 1.8v-0.2"/>
						<path class="st88" d="m322.6 208.5 2.9-1.8v0.2l-2.9 1.8v-0.2"/>
						<path class="st89" d="m322.4 208.7 2.9-1.8v0.2l-2.9 1.8v-0.2"/>
						<path class="st90" d="m322.4 209.1 2.9-1.8c0 0.2 0 0.2-0.2 0.2l-2.9 1.8c0.2 0 0.2-0.2 0.2-0.2"/>
						<path class="st91" d="m322.2 209.3 2.9-1.8c0 0.2-0.2 0.2-0.2 0.4l-2.9 1.8c0.2-0.2 0.2-0.2 0.2-0.4"/>
						<path class="st92" d="m322 209.7 2.9-1.8c-0.2 0.4-0.6 0.6-0.8 0.8l-2.9 1.8c0.4-0.3 0.6-0.5 0.8-0.8"/>
					</g>
			</g>
				<polygon class="st93" points="322.8 151.3 325.7 149.5 325.5 205.5 322.6 207.3"/>
			<g class="st15">
					<defs>
						<path id="y" d="m314.1 142.3 2.9-1.8c1-0.6 2.2-0.4 3.5 0.4l-2.9 1.8c-1.1-0.8-2.5-1-3.5-0.4z"/>
					</defs>
					<clipPath id="x">
						<use xlink:href="#y"/>
					</clipPath>
					<g class="st118">
						<path class="st92" d="m314.1 142.3 2.9-1.8c0.2 0 0.2-0.2 0.4-0.2l-2.9 1.8s-0.2 0-0.4 0.2"/>
						<path class="st91" d="m314.5 142.1 2.9-1.8h0.4l-2.9 1.8h-0.4"/>
						<path class="st90" d="m314.9 141.9 2.9-1.8h0.2l-2.9 1.8h-0.2"/>
						<path class="st89" d="m315.3 141.9 2.9-1.8h0.2l-2.9 1.8h-0.2"/>
						<path class="st88" d="m315.5 141.9 2.9-1.8h0.2l-2.9 1.8h-0.2"/>
						<path class="st87" d="m315.7 141.9 2.9-1.8h0.2l-2.9 1.8h-0.2"/>
						<path class="st86" d="m315.9 141.9 2.9-1.8h0.2l-2.9 1.8h-0.2"/>
						<path class="st85" d="m316.3 141.9 2.9-1.8h0.2l-2.9 1.8c-0.2 0.2-0.2 0.2-0.2 0"/>
						<path class="st84" d="m316.5 142.1 2.9-1.8h0.2l-2.9 1.8h-0.2"/>
						<path class="st83" d="m316.7 142.1 2.9-1.8h0.2l-2.9 1.8h-0.2"/>
						<path class="st95" d="m316.9 142.1 2.9-1.8h0.2l-2.9 1.8c-0.2 0.2-0.2 0-0.2 0"/>
						<path class="st96" d="m317.1 142.3 2.9-1.8h0.2l-2.9 1.8h-0.2"/>
						<path class="st97" d="m317.3 142.3 2.9-1.8h0.2l-2.9 1.8h-0.2"/>
						<path class="st98" d="m317.5 142.5 2.9-1.8s0.2 0 0.2 0.2l-2.9 1.8-0.2-0.2"/>
						<path class="st99" d="m317.7 142.5 2.9-1.8h0.2l-3.1 1.8"/>
					</g>
			</g>
			<g class="st15">
					<defs>
						<path id="w" d="m317.9 142.7 2.9-1.8c2.8 1.6 5.1 5.5 5.1 8.6l-2.9 1.8c-0.2-3.1-2.4-7.1-5.1-8.6z"/>
					</defs>
					<clipPath id="v">
						<use xlink:href="#w"/>
					</clipPath>
					<g class="st119">
						<path class="st99" d="m317.9 142.7 2.9-1.8-2.9 1.8"/>
						<path class="st101" d="m317.9 142.7 2.9-1.8s0.2 0 0.2 0.2l-2.9 1.8c0-0.2-0.2-0.2-0.2-0.2"/>
						<path class="st102" d="m318.1 142.7 2.9-1.8s0.2 0 0.2 0.2l-2.9 1.8s-0.2 0-0.2-0.2"/>
						<path class="st103" d="m318.3 142.9 2.9-1.8 0.2 0.2-2.9 1.8-0.2-0.2"/>
						<path class="st104" d="m318.5 143.1 2.9-1.8 0.2 0.2-2.9 1.8s0-0.2-0.2-0.2"/>
						<path class="st105" d="m318.7 143.3 2.9-1.8 0.2 0.2-2.9 1.8c0-0.2 0-0.2-0.2-0.2"/>
						<path class="st106" d="m318.9 143.5 2.9-1.8 0.2 0.2-2.9 1.8c0-0.2 0-0.2-0.2-0.2"/>
						<path class="st107" d="m319.2 143.7 2.9-1.8 0.2 0.2-2.9 1.8-0.2-0.2"/>
						<path class="st108" d="m319.4 143.8 2.9-1.8 0.2 0.2-2.9 1.8-0.2-0.2"/>
						<path class="st109" d="m319.6 144 2.9-1.8 0.2 0.2-2.9 1.8c-0.2 0-0.2-0.2-0.2-0.2"/>
						<path class="st27" d="m319.8 144.2 2.9-1.8 0.2 0.2-2.9 1.8c-0.2 0-0.2-0.2-0.2-0.2"/>
						<path class="st27" d="m320 144.4 2.9-1.8 0.2 0.2-2.9 1.8c-0.2 0-0.2-0.2-0.2-0.2"/>
						<path class="st27" d="m320.2 144.6 2.9-1.8 0.2 0.2-2.9 1.8c-0.2 0-0.2 0-0.2-0.2"/>
						<path class="st27" d="m320.4 144.8 2.9-1.8 0.2 0.2-2.9 1.8s-0.2 0-0.2-0.2"/>
						<path class="st27" d="m320.6 145.2 2.9-1.8c0.2 0.2 0.2 0.4 0.4 0.4l-2.9 1.8c-0.2-0.2-0.4-0.2-0.4-0.4"/>
						<path class="st27" d="m321 145.6 2.9-1.8c0.2 0.2 0.2 0.4 0.4 0.6l-2.9 1.8c-0.2-0.2-0.4-0.4-0.4-0.6"/>
						<path class="st27" d="m321.2 146.2 2.9-1.8c0 0.2 0.2 0.2 0.2 0.4l-2.9 1.8s0-0.2-0.2-0.4"/>
						<path class="st27" d="m321.6 146.8 2.9-1.8c0 0.2 0.2 0.2 0.2 0.4l-2.9 1.8c-0.2-0.2-0.2-0.4-0.2-0.4"/>
						<path class="st27" d="m321.8 147 2.9-1.8s0 0.2 0.2 0.2l-2.9 1.8c-0.2 0-0.2 0-0.2-0.2"/>
						<path class="st27" d="m321.8 147.2 2.9-1.8s0 0.2 0.2 0.2l-2.9 1.8s-0.2 0-0.2-0.2"/>
						<path class="st27" d="m322 147.6 2.9-1.8s0 0.2 0.2 0.2l-2.9 1.8c-0.2 0-0.2-0.2-0.2-0.2"/>
						<path class="st109" d="m322 147.8 2.9-1.8s0 0.2 0.2 0.2l-2.9 1.8-0.2-0.2"/>
						<path class="st108" d="m322.2 148 2.9-1.8v0.2l-2.9 1.8v-0.2"/>
						<path class="st107" d="m322.2 148.2 2.9-1.8v0.2l-2.9 1.8c0.2 0 0 0 0-0.2"/>
						<path class="st106" d="m322.4 148.6 2.9-1.8v0.2l-2.9 1.8v-0.2"/>
						<path class="st105" d="m322.4 148.8 2.9-1.8v0.2l-2.9 1.8v-0.2"/>
						<path class="st104" d="m322.6 149 2.9-1.8v0.2l-2.9 1.8v-0.2"/>
						<path class="st103" d="m322.6 149.3 2.9-1.8v0.2l-2.9 1.8v-0.2"/>
						<path class="st102" d="m322.6 149.5 2.9-1.8v0.2l-2.9 1.8v-0.2"/>
						<path class="st101" d="m322.6 149.7 2.9-1.8v0.2l-2.9 1.8c0.2 0 0.2 0 0-0.2"/>
						<path class="st99" d="m322.8 150.1 2.9-1.8v0.2l-2.9 1.8v-0.2"/>
						<path class="st98" d="m322.8 150.3 2.9-1.8v0.2l-2.9 1.8v-0.2"/>
						<path class="st97" d="m322.8 150.5 2.9-1.8v0.2l-2.9 2v-0.4"/>
						<path class="st96" d="m322.8 150.9 2.9-1.8v0.2l-2.9 1.8v-0.2"/>
						<path class="st95" d="m322.8 151.1 2.9-1.8v0.2l-2.9 1.8v-0.2"/>
					</g>
			</g>
				<path class="st110" d="m317.9 142.7c2.8 1.6 5.1 5.5 5.1 8.6l-0.2 56c0 3.1-2.4 4.5-5.1 2.9-2.8-1.6-5.1-5.5-5.1-8.6l0.2-56c0-3.3 2.1-4.7 5.1-2.9z"/>
		</g>
		<g class="st15">
			<g class="st15">
					<defs>
						<path id="u" d="m307.3 232.8-2.9 1.8c1-0.6 1.4-1.6 1.4-3.1l2.9-1.8c-0.1 1.6-0.5 2.5-1.4 3.1z"/>
					</defs>
					<clipPath id="t">
						<use xlink:href="#u"/>
					</clipPath>
					<g class="st120">
						<polyline class="st95" points="305.7 231.3 308.6 229.7 308.6 229.7 305.7 231.3 305.7 231.3"/>
						<path class="st83" d="m305.7 231.3 2.9-1.8v0.2l-2.9 1.8v-0.2"/>
						<path class="st84" d="m305.7 231.7 2.9-1.8v0.2l-2.9 1.8v-0.2"/>
						<path class="st85" d="m305.7 231.8 2.9-1.8v0.2l-2.9 1.8v-0.2"/>
						<path class="st86" d="m305.7 232 2.9-1.8v0.2l-2.9 1.8v-0.2"/>
						<path class="st87" d="m305.7 232.2 2.9-1.8v0.2l-2.9 1.8v-0.2"/>
						<path class="st88" d="m305.7 232.6 2.9-1.8v0.2l-2.9 1.8c-0.2 0 0-0.2 0-0.2"/>
						<path class="st89" d="m305.5 232.8 2.9-1.8v0.2l-2.9 1.8v-0.2"/>
						<path class="st90" d="m305.5 233 2.9-1.8c0 0.2 0 0.2-0.2 0.2l-2.9 1.8c0.2 0 0.2 0 0.2-0.2"/>
						<path class="st91" d="m305.3 233.4 2.9-1.8c0 0.2-0.2 0.2-0.2 0.4l-2.9 1.8c0.2-0.2 0.2-0.4 0.2-0.4"/>
						<path class="st92" d="m305.1 233.8 2.9-1.8c-0.2 0.4-0.6 0.6-0.8 0.8l-2.9 1.8c0.4-0.2 0.6-0.6 0.8-0.8"/>
					</g>
			</g>
				<polygon class="st93" points="306.1 107.9 309 106.1 308.6 229.7 305.7 231.3"/>
			<g class="st15">
					<defs>
						<path id="s" d="m297.4 98.9 2.9-1.8c1-0.6 2.2-0.4 3.5 0.4l-2.9 1.8c-1.3-1-2.5-1-3.5-0.4z"/>
					</defs>
					<clipPath id="r">
						<use xlink:href="#s"/>
					</clipPath>
					<g class="st121">
						<path class="st92" d="m297.4 98.9 2.9-1.8c0.2 0 0.2-0.2 0.4-0.2l-2.9 1.8s-0.2 0-0.4 0.2"/>
						<path class="st91" d="m297.8 98.7 2.9-1.8h0.4l-2.9 1.8c0-0.2-0.2-0.2-0.4 0"/>
						<path class="st90" d="m298.2 98.5 2.9-1.8h0.2l-2.9 1.8h-0.2"/>
						<path class="st89" d="m298.6 98.5 2.9-1.8h0.2l-2.9 1.8h-0.2"/>
						<path class="st88" d="m298.8 98.5 2.9-1.8h0.2l-2.9 1.8h-0.2"/>
						<path class="st87" d="m299 98.5 2.9-1.8h0.2l-2.9 1.8h-0.2"/>
						<path class="st86" d="m299.2 98.5 2.9-1.8h0.2l-2.9 1.8h-0.2"/>
						<path class="st85" d="m299.6 98.5 2.9-1.8h0.2l-2.9 1.8h-0.2"/>
						<path class="st84" d="m299.8 98.5 2.9-1.8h0.2l-2.9 1.8c-0.2 0.2-0.2 0-0.2 0"/>
						<path class="st83" d="m300 98.7 2.9-1.8h0.2l-2.9 1.8h-0.2"/>
						<path class="st95" d="m300.2 98.7 2.9-1.8h0.2l-2.9 1.8h-0.2"/>
						<path class="st96" d="m300.4 98.7 2.9-1.8h0.2l-2.9 1.8c-0.2 0.2-0.2 0.2-0.2 0"/>
						<path class="st97" d="m300.6 98.9 2.9-1.8h0.2l-2.9 1.8h-0.2"/>
						<path class="st98" d="m300.8 98.9 2.9-1.8s0.2 0 0.2 0.2l-2.9 1.8c-0.2 0-0.2 0-0.2-0.2"/>
						<path class="st99" d="m301 99.1 2.9-1.8h0.2l-3.1 1.8"/>
					</g>
			</g>
			<g class="st15">
					<defs>
						<path id="q" d="m301.2 99.1 2.9-1.8c2.8 1.6 5.1 5.5 5.1 8.6l-2.9 1.8c-0.2-3.1-2.4-6.9-5.1-8.6z"/>
					</defs>
					<clipPath id="p">
						<use xlink:href="#q"/>
					</clipPath>
					<g class="st122">
						<path class="st99" d="m301.2 99.1 2.9-1.8-2.9 1.8"/>
						<path class="st101" d="m301.2 99.1 2.9-1.8s0.2 0 0.2 0.2l-2.9 1.8s-0.2 0-0.2-0.2"/>
						<path class="st102" d="m301.4 99.3 2.9-1.8s0.2 0 0.2 0.2l-2.9 1.8-0.2-0.2"/>
						<path class="st103" d="m301.6 99.5 2.9-1.8 0.2 0.2-2.9 1.8c0-0.2-0.2-0.2-0.2-0.2"/>
						<path class="st104" d="m301.8 99.6 2.9-1.8 0.2 0.2-2.9 1.8c0-0.2 0-0.2-0.2-0.2"/>
						<path class="st105" d="m302 99.8 2.9-1.8 0.2 0.2-2.9 1.8c0-0.2 0-0.2-0.2-0.2"/>
						<path class="st106" d="m302.2 99.8 2.9-1.8 0.2 0.2-2.9 1.8-0.2-0.2"/>
						<path class="st107" d="m302.6 100 2.9-1.8 0.2 0.2-2.9 1.8c-0.2 0-0.2 0-0.2-0.2"/>
						<path class="st108" d="m302.7 100.2 2.9-1.8 0.2 0.2-2.9 1.8c-0.2 0-0.2 0-0.2-0.2"/>
						<path class="st109" d="m302.9 100.6 2.9-1.8 0.2 0.2-2.9 1.8-0.2-0.2"/>
						<path class="st27" d="m303.1 100.8 2.9-1.8 0.2 0.2-2.9 1.8-0.2-0.2"/>
						<path class="st27" d="m303.3 101 2.9-1.8 0.2 0.2-2.9 1.8-0.2-0.2"/>
						<path class="st27" d="m303.5 101.2 2.9-1.8 0.2 0.2-2.9 1.8c-0.2 0-0.2-0.2-0.2-0.2"/>
						<path class="st27" d="m303.7 101.4 2.9-1.8 0.2 0.2-2.9 1.8s-0.2 0-0.2-0.2"/>
						<path class="st27" d="m303.9 101.8 2.9-1.8c0.2 0.2 0.2 0.4 0.4 0.4l-2.9 1.8-0.4-0.4"/>
						<path class="st27" d="m304.3 102.2 2.9-1.8c0.2 0.2 0.2 0.4 0.4 0.6l-2.9 1.8c-0.2-0.2-0.4-0.4-0.4-0.6"/>
						<path class="st27" d="m304.5 102.8 2.9-1.8c0 0.2 0.2 0.2 0.2 0.4l-2.9 1.8c0-0.2 0-0.2-0.2-0.4"/>
						<path class="st27" d="m304.9 103.2 2.9-1.8c0 0.2 0.2 0.2 0.2 0.4l-2.9 1.8c-0.2-0.2-0.2-0.2-0.2-0.4"/>
						<path class="st27" d="m304.9 103.6 2.9-1.8s0 0.2 0.2 0.2l-2.9 1.8s0-0.2-0.2-0.2"/>
						<path class="st27" d="m305.1 103.8 2.9-1.8s0 0.2 0.2 0.2l-2.9 1.8-0.2-0.2"/>
						<path class="st27" d="m305.3 104 2.9-1.8s0 0.2 0.2 0.2l-2.9 1.8c-0.2 0-0.2 0-0.2-0.2"/>
						<path class="st109" d="m305.3 104.4 2.9-1.8s0 0.2 0.2 0.2l-2.9 1.8c0-0.2-0.2-0.2-0.2-0.2"/>
						<path class="st108" d="m305.5 104.6 2.9-1.8v0.2l-2.9 1.8v-0.2"/>
						<path class="st107" d="m305.5 104.8 2.9-1.8v0.2l-2.9 1.8c0.2 0 0-0.2 0-0.2"/>
						<path class="st106" d="m305.7 105 2.9-1.8v0.2l-2.9 1.8v-0.2"/>
						<path class="st105" d="m305.7 105.3 2.9-1.8v0.2l-2.9 1.8v-0.2"/>
						<path class="st104" d="m305.7 105.5 2.9-1.8v0.2l-2.9 1.8c0.2 0 0.2 0 0-0.2"/>
						<path class="st103" d="m305.9 105.7 2.9-1.8v0.2l-2.9 1.8v-0.2"/>
						<path class="st102" d="m305.9 106.1 2.9-1.8v0.2l-2.9 1.8v-0.2"/>
						<path class="st101" d="m305.9 106.3 2.9-1.8v0.2l-2.9 1.8c0.2 0 0.2 0 0-0.2"/>
						<path class="st99" d="m306.1 106.5 2.9-1.8v0.2l-2.9 1.8v-0.2"/>
						<path class="st98" d="m306.1 106.9 2.9-1.8v0.2l-2.9 1.8v-0.2"/>
						<path class="st97" d="m306.1 107.1 2.9-1.8v0.2l-2.9 1.8v-0.2"/>
						<path class="st96" d="m306.1 107.3 2.9-1.8v0.2l-2.9 1.8v-0.2"/>
						<path class="st95" d="m306.1 107.5 2.9-1.8v0.2l-2.9 1.8v-0.2"/>
					</g>
			</g>
				<path class="st110" d="m301.2 99.1c2.8 1.6 5.1 5.5 5.1 8.6l-0.4 123.6c0 3.1-2.4 4.5-5.1 2.9-2.8-1.6-5.1-5.5-5.1-8.6l0.4-123.6c0-3.1 2.1-4.5 5.1-2.9z"/>
		</g>
		<g class="st15">
			<g class="st15">
					<defs>
						<path id="n" d="m290.6 204-2.9 1.8c1-0.6 1.4-1.6 1.4-3.3l2.9-1.8c-0.1 1.5-0.6 2.7-1.4 3.3z"/>
					</defs>
					<clipPath id="m">
						<use xlink:href="#n"/>
					</clipPath>
					<g class="st123">
						<polyline class="st95" points="289 202.4 291.9 200.6 291.9 200.6 289 202.4 289 202.4"/>
						<path class="st83" d="m289 202.4 2.9-1.8v0.2l-2.9 1.8v-0.2"/>
						<path class="st84" d="m289 202.6 2.9-1.8v0.2l-2.9 1.8v-0.2"/>
						<path class="st85" d="m289 202.8 2.9-1.8v0.2l-2.9 1.8v-0.2"/>
						<path class="st86" d="m289 203.2 2.9-1.8v0.2l-2.9 1.8v-0.2"/>
						<path class="st87" d="m289 203.4 2.9-1.8v0.2l-2.9 1.8v-0.2"/>
						<path class="st88" d="m288.8 203.6 2.9-1.8v0.2l-2.9 1.8v-0.2"/>
						<path class="st89" d="m288.8 203.8 2.9-1.8v0.2l-2.9 1.8v-0.2"/>
						<path class="st90" d="m288.8 204.2 2.9-1.8c0 0.2 0 0.2-0.2 0.2l-2.9 1.8c0-0.1 0.2-0.2 0.2-0.2"/>
						<path class="st91" d="m288.6 204.3 2.9-1.8c0 0.2-0.2 0.2-0.2 0.4l-2.9 1.8c0-0.2 0.2-0.2 0.2-0.4"/>
						<path class="st92" d="m288.4 204.7 2.9-1.8c-0.2 0.4-0.6 0.6-0.8 0.8l-2.9 1.8c0.2-0.2 0.6-0.4 0.8-0.8"/>
					</g>
			</g>
				<polygon class="st93" points="289.2 117.3 292.1 115.8 291.9 200.6 289 202.4"/>
			<g class="st15">
					<defs>
						<path id="l" d="m280.7 108.3 2.9-1.8c1-0.6 2.2-0.4 3.5 0.4l-2.9 1.8c-1.3-0.8-2.7-0.8-3.5-0.4z"/>
					</defs>
					<clipPath id="k">
						<use xlink:href="#l"/>
					</clipPath>
					<g class="st124">
						<path class="st92" d="m280.7 108.3 2.9-1.8c0.2 0 0.2-0.2 0.4-0.2l-2.9 1.8c-0.2 0.2-0.4 0.2-0.4 0.2"/>
						<path class="st91" d="m281.1 108.3 2.9-1.8h0.4l-2.9 1.8c-0.2-0.2-0.4-0.2-0.4 0"/>
						<path class="st90" d="m281.3 108.1 2.9-1.8h0.2l-2.9 1.8h-0.2"/>
						<path class="st89" d="m281.7 108.1 2.9-1.8h0.2l-2.9 1.8h-0.2"/>
						<path class="st88" d="m281.9 108.1 2.9-1.8h0.2l-2.9 1.8h-0.2"/>
						<path class="st87" d="m282.1 108.1 2.9-1.8h0.2l-2.9 1.8h-0.2"/>
						<path class="st86" d="m282.5 108.1 2.9-1.8h0.2l-2.9 1.8h-0.2"/>
						<path class="st85" d="m282.7 108.1 2.9-1.8h0.2l-2.9 1.8h-0.2"/>
						<path class="st84" d="m282.9 108.1 2.9-1.8h0.2l-2.9 1.8c-0.2 0.2-0.2 0-0.2 0"/>
						<path class="st83" d="m283.1 108.3 2.9-1.8h0.2l-2.9 1.8h-0.2"/>
						<path class="st95" d="m283.3 108.3 2.9-1.8h0.2l-2.9 1.8h-0.2"/>
						<path class="st96" d="m283.5 108.3 2.9-1.8h0.2l-2.9 1.8c0 0.2-0.2 0-0.2 0"/>
						<path class="st97" d="m283.7 108.5 2.9-1.8h0.2l-2.9 1.8h-0.2"/>
						<path class="st98" d="m283.9 108.5 2.9-1.8s0.2 0 0.2 0.2l-2.9 1.8-0.2-0.2"/>
						<path class="st99" d="m284.1 108.7 2.9-1.8h0.2l-3.1 1.8c0.2 0 0 0 0 0"/>
					</g>
			</g>
			<g class="st15">
					<defs>
						<path id="j" d="m284.3 108.7 2.9-1.8c2.8 1.6 5.1 5.5 5.1 8.6l-2.9 1.8c-0.2-3.1-2.4-7-5.1-8.6z"/>
					</defs>
					<clipPath id="i">
						<use xlink:href="#j"/>
					</clipPath>
					<g class="st125">
						<path class="st99" d="m284.3 108.7 2.9-1.8-2.9 1.8"/>
						<path class="st101" d="m284.3 108.7 2.9-1.8s0.2 0 0.2 0.2l-2.9 1.8s-0.2 0-0.2-0.2"/>
						<path class="st102" d="m284.5 108.9 2.9-1.8s0.2 0 0.2 0.2l-2.9 1.8s0-0.2-0.2-0.2"/>
						<path class="st103" d="m284.7 109.1 2.9-1.8 0.2 0.2-2.9 1.8c0-0.2 0-0.2-0.2-0.2"/>
						<path class="st104" d="m284.9 109.3 2.9-1.8 0.2 0.2-2.9 1.8c0-0.2 0-0.2-0.2-0.2"/>
						<path class="st105" d="m285.3 109.3 2.9-1.8 0.2 0.2-2.9 1.8c-0.2 0-0.2 0-0.2-0.2"/>
						<path class="st106" d="m285.5 109.5 2.9-1.8 0.2 0.2-2.9 1.8c-0.2 0-0.2 0-0.2-0.2"/>
						<path class="st107" d="m285.7 109.7 2.9-1.8 0.2 0.2-2.9 1.8s-0.2 0-0.2-0.2"/>
						<path class="st108" d="m285.9 109.9 2.9-1.8 0.2 0.2-2.9 1.8s-0.2 0-0.2-0.2"/>
						<path class="st109" d="m286.1 110.3 2.9-1.8 0.2 0.2-2.9 1.8c-0.1-0.2-0.2-0.2-0.2-0.2"/>
						<path class="st27" d="m286.2 110.5 2.9-1.8 0.2 0.2-2.9 1.8c0-0.2-0.2-0.2-0.2-0.2"/>
						<path class="st27" d="m286.4 110.6 2.9-1.8 0.2 0.2-2.9 1.8c0-0.2-0.2-0.2-0.2-0.2"/>
						<path class="st27" d="m286.6 110.8 2.9-1.8 0.2 0.2-2.9 1.8-0.2-0.2"/>
						<path class="st27" d="m286.8 111 2.9-1.8 0.2 0.2-2.9 1.8s-0.2 0-0.2-0.2"/>
						<path class="st27" d="m287 111.4 2.9-1.8c0.2 0.2 0.2 0.4 0.4 0.4l-2.9 1.8c-0.2-0.2-0.2-0.4-0.4-0.4"/>
						<path class="st27" d="m287.4 111.8 2.9-1.8c0.2 0.2 0.2 0.4 0.4 0.6l-2.9 1.8c-0.2-0.2-0.4-0.4-0.4-0.6"/>
						<path class="st27" d="m287.8 112.4 2.9-1.8c0 0.2 0.2 0.2 0.2 0.4l-2.9 1.8c0-0.2-0.2-0.2-0.2-0.4"/>
						<path class="st27" d="m288 112.8 2.9-1.8c0 0.2 0.2 0.2 0.2 0.4l-2.9 1.8c-0.2-0.2-0.2-0.2-0.2-0.4"/>
						<path class="st27" d="m288.2 113.2 2.9-1.8s0 0.2 0.2 0.2l-2.9 1.8c-0.2 0-0.2-0.2-0.2-0.2"/>
						<path class="st27" d="m288.2 113.4 2.9-1.8s0 0.2 0.2 0.2l-2.9 1.8s0-0.2-0.2-0.2"/>
						<path class="st27" d="m288.4 113.6 2.9-1.8s0 0.2 0.2 0.2l-2.9 1.8c-0.2 0-0.2 0-0.2-0.2"/>
						<path class="st109" d="m288.4 113.8 2.9-1.8v0.2l-2.9 1.8c0.2 0 0.2 0 0-0.2"/>
						<path class="st108" d="m288.6 114.2 2.9-1.8v0.2l-2.9 1.8v-0.2"/>
						<path class="st107" d="m288.6 114.4 2.9-1.8v0.2l-2.9 1.8c0.2 0 0.2-0.2 0-0.2"/>
						<path class="st106" d="m288.8 114.6 2.9-1.8v0.2l-2.9 1.8v-0.2"/>
						<path class="st105" d="m288.8 115 2.9-1.8v0.2l-2.9 1.8c0.2 0 0-0.2 0-0.2"/>
						<path class="st104" d="m289 115.2 2.9-1.8v0.2l-2.9 1.8v-0.2"/>
						<path class="st103" d="m289 115.4 2.9-1.8v0.2l-2.9 1.8v-0.2"/>
						<path class="st102" d="m289 115.8 2.9-1.8v0.2l-2.9 1.8c0.2 0 0-0.2 0-0.2"/>
						<path class="st101" d="M289.2,116l2.9-1.8v0.2l-2.9,1.8V116"/>
						<path class="st99" d="m289.2 116.2 2.9-1.8v0.2l-2.9 1.8v-0.2"/>
						<path class="st98" d="m289.2 116.5 2.9-1.8v0.2l-2.9 1.8v-0.2"/>
						<path class="st97" d="m289.2 116.7 2.9-1.8v0.2l-2.9 1.8v-0.2"/>
						<path class="st96" d="m289.2 116.9 2.9-1.8v0.2l-2.9 1.8v-0.2"/>
						<path class="st95" d="m289.2 117.1 2.9-1.8v0.2l-2.9 1.8v-0.2"/>
					</g>
			</g>
				<path class="st110" d="m284.3 108.7c2.8 1.6 5.1 5.5 5.1 8.6l-0.2 84.9c0 3.1-2.4 4.5-5.1 2.9-2.8-1.6-5.1-5.5-5.1-8.6l0.2-84.9c0-3.1 2.3-4.5 5.1-2.9z"/>
		</g>
		<g class="st15">
			<g class="st15">
					<defs>
						<path id="h" d="m273.9 169-2.9 1.8c1-0.6 1.4-1.6 1.4-3.1l2.9-1.8c-0.1 1.5-0.6 2.7-1.4 3.1z"/>
					</defs>
					<clipPath id="g">
						<use xlink:href="#h"/>
					</clipPath>
					<g class="st126">
						<polyline class="st95" points="272.3 167.6 275.2 165.8 275.2 165.8 272.3 167.6 272.3 167.6"/>
						<path class="st83" d="m272.3 167.6 2.9-1.8v0.2l-2.9 1.8v-0.2"/>
						<path class="st84" d="m272.3 167.8 2.9-1.8v0.2l-2.9 1.8v-0.2"/>
						<path class="st85" d="m272.3 168 2.9-1.8v0.2l-2.9 1.8v-0.2"/>
						<path class="st86" d="m272.3 168.2 2.9-1.8v0.2l-2.9 1.8v-0.2"/>
						<path class="st87" d="m272.3 168.6 2.9-1.8v0.2l-2.9 1.8c-0.2 0 0-0.2 0-0.2"/>
						<path class="st88" d="m272.1 168.8 2.9-1.8v0.2l-2.9 1.8v-0.2"/>
						<path class="st89" d="m272.1 169 2.9-1.8v0.2l-2.9 1.8v-0.2"/>
						<path class="st90" d="m272.1 169.4 2.9-1.8c0 0.2 0 0.2-0.2 0.2l-2.9 1.8s0-0.2 0.2-0.2"/>
						<path class="st91" d="m271.9 169.6 2.9-1.8c0 0.2-0.2 0.2-0.2 0.4l-2.9 1.8c0-0.2 0.2-0.2 0.2-0.4"/>
						<path class="st92" d="m271.7 170 2.9-1.8c-0.2 0.4-0.6 0.6-0.8 0.8l-2.9 1.8c0.2-0.2 0.6-0.4 0.8-0.8"/>
					</g>
			</g>
				<polygon class="st93" points="272.5 132.8 275.4 131.1 275.2 165.8 272.3 167.6"/>
			<g class="st15">
					<defs>
						<path id="f" d="m263.9 123.8 2.9-1.8c1-0.6 2.2-0.4 3.5 0.4l-2.9 1.8c-1.4-1-2.8-1-3.5-0.4z"/>
					</defs>
					<clipPath id="e">
						<use xlink:href="#f"/>
					</clipPath>
					<g class="st127">
						<path class="st92" d="m263.9 123.8 2.9-1.8c0.2 0 0.2-0.2 0.4-0.2l-2.9 1.8c-0.2 0-0.4 0-0.4 0.2"/>
						<path class="st91" d="m264.2 123.6 2.9-1.8h0.4l-2.9 1.8c-0.2-0.2-0.4 0-0.4 0"/>
						<path class="st90" d="m264.6 123.4 2.9-1.8h0.2l-2.9 1.8h-0.2"/>
						<path class="st89" d="m264.8 123.4 2.9-1.8h0.2l-2.9 1.8h-0.2"/>
						<path class="st88" d="m265 123.4 2.9-1.8h0.2l-2.9 1.8h-0.2"/>
						<path class="st87" d="m265.4 123.4 2.9-1.8h0.2l-2.9 1.8h-0.2"/>
						<path class="st86" d="m265.6 123.4 2.9-1.8h0.2l-2.9 1.8h-0.2"/>
						<path class="st85" d="m265.8 123.4 2.9-1.8h0.2l-2.9 1.8c0 0.2-0.2 0-0.2 0"/>
						<path class="st84" d="M266,123.6l2.9-1.8h0.2l-2.9,1.8H266"/>
						<path class="st83" d="m266.2 123.6 2.9-1.8h0.2l-2.9 1.8h-0.2"/>
						<path class="st95" d="m266.4 123.6 2.9-1.8h0.2l-2.9 1.8h-0.2"/>
						<path class="st96" d="m266.6 123.8 2.9-1.8h0.2l-2.9 1.8h-0.2"/>
						<path class="st97" d="m266.8 123.8 2.9-1.8h0.2l-2.9 1.8h-0.2"/>
						<path class="st98" d="m267 124 2.9-1.8s0.2 0 0.2 0.2l-2.9 1.8c0-0.2-0.2-0.2-0.2-0.2"/>
						<path class="st99" d="m267.2 124 2.9-1.8h0.2l-3.1 1.8c0.2 0 0 0 0 0"/>
					</g>
			</g>
			<g class="st15">
					<defs>
						<path id="c" d="m267.4 124.2 2.9-1.8c2.8 1.6 5.1 5.5 5.1 8.6l-2.9 1.8c0-3.1-2.4-7-5.1-8.6z"/>
					</defs>
					<clipPath id="b">
						<use xlink:href="#c"/>
					</clipPath>
					<g class="st128">
						<path class="st99" d="m267.4 124.2 2.9-1.8-2.9 1.8"/>
						<path class="st101" d="m267.4 124.2 2.9-1.8s0.2 0 0.2 0.2l-2.9 1.8c0-0.2 0-0.2-0.2-0.2"/>
						<path class="st102" d="m267.6 124.2 2.9-1.8s0.2 0 0.2 0.2l-2.9 1.8-0.2-0.2"/>
						<path class="st103" d="m267.8 124.4 2.9-1.8 0.2 0.2-2.9 1.8s0-0.2-0.2-0.2"/>
						<path class="st104" d="m268 124.6 2.9-1.8 0.2 0.2-2.9 1.8c0-0.2 0-0.2-0.2-0.2"/>
						<path class="st105" d="m268.4 124.8 2.9-1.8 0.2 0.2-2.9 1.8-0.2-0.2"/>
						<path class="st106" d="m268.6 125 2.9-1.8 0.2 0.2-2.9 1.8c0-0.2-0.2-0.2-0.2-0.2"/>
						<path class="st107" d="m268.8 125.2 2.9-1.8 0.2 0.2-2.9 1.8c0-0.2-0.2-0.2-0.2-0.2"/>
						<path class="st108" d="m269 125.4 2.9-1.8 0.2 0.2-2.9 1.8c0-0.2-0.2-0.2-0.2-0.2"/>
						<path class="st109" d="m269.2 125.6 2.9-1.8 0.2 0.2-2.9 1.8c0-0.2-0.2-0.2-0.2-0.2"/>
						<path class="st27" d="m269.4 125.8 2.9-1.8 0.2 0.2-2.9 1.8-0.2-0.2"/>
						<path class="st27" d="m269.6 126 2.9-1.8 0.2 0.2-2.9 1.8c-0.1 0-0.2-0.2-0.2-0.2"/>
						<path class="st27" d="m269.7 126.2 2.9-1.8 0.2 0.2-2.9 1.8s-0.2 0-0.2-0.2"/>
						<path class="st27" d="m269.9 126.4 2.9-1.8 0.2 0.2-2.9 1.8-0.2-0.2"/>
						<path class="st27" d="m270.1 126.8 2.9-1.8c0.2 0.2 0.2 0.4 0.4 0.4l-2.9 1.8-0.4-0.4"/>
						<path class="st27" d="m270.5 127.2 2.9-1.8c0.2 0.2 0.2 0.4 0.4 0.6l-2.9 1.8c-0.2-0.3-0.2-0.5-0.4-0.6"/>
						<path class="st27" d="m270.9 127.7 2.9-1.8c0 0.2 0.2 0.2 0.2 0.4l-2.9 1.8s-0.2-0.2-0.2-0.4"/>
						<path class="st27" d="m271.1 128.1 2.9-1.8c0 0.2 0.2 0.2 0.2 0.4l-2.9 1.8s-0.2-0.2-0.2-0.4"/>
						<path class="st27" d="m271.3 128.5 2.9-1.8s0 0.2 0.2 0.2l-2.9 1.8c-0.2 0-0.2-0.2-0.2-0.2"/>
						<path class="st27" d="m271.5 128.7 2.9-1.8s0 0.2 0.2 0.2l-2.9 1.8c-0.2 0-0.2 0-0.2-0.2"/>
						<path class="st27" d="m271.5 129.1 2.9-1.8s0 0.2 0.2 0.2l-2.9 1.8-0.2-0.2"/>
						<path class="st109" d="m271.7 129.3 2.9-1.8s0 0.2 0.2 0.2l-2.9 1.8c-0.2 0-0.2-0.2-0.2-0.2"/>
						<path class="st108" d="m271.7 129.5 2.9-1.8v0.2l-2.9 1.8v-0.2"/>
						<path class="st107" d="m271.9 129.7 2.9-1.8v0.2l-2.9 1.8v-0.2"/>
						<path class="st106" d="m271.9 130.1 2.9-1.8v0.2l-2.9 1.8v-0.2"/>
						<path class="st105" d="m271.9 130.3 2.9-1.8v0.2l-2.9 1.8c0.2 0 0.2-0.2 0-0.2"/>
						<path class="st104" d="m272.1 130.5 2.9-1.8v0.2l-2.9 1.8v-0.2"/>
						<path class="st103" d="m272.1 130.9 2.9-1.8v0.2l-2.9 1.8v-0.2"/>
						<path class="st102" d="m272.3 131.1 2.9-1.8v0.2l-2.9 1.8v-0.2"/>
						<path class="st101" d="m272.3 131.3 2.9-1.8v0.2l-2.9 1.8v-0.2"/>
						<path class="st99" d="m272.3 131.7 2.9-1.8v0.2l-2.9 1.8v-0.2"/>
						<path class="st98" d="m272.3 131.9 2.9-1.8v0.2l-2.9 1.8v-0.2"/>
						<path class="st97" d="m272.3 132.1 2.9-1.8v0.2l-2.9 1.8v-0.2"/>
						<path class="st96" d="m272.3 132.3 2.9-1.8v0.2l-2.9 1.8c0.2 0 0.2 0 0-0.2"/>
						<path class="st95" d="m272.5 132.7 2.9-1.8v0.2l-2.9 1.8v-0.2"/>
					</g>
			</g>
				<path class="st110" d="m267.4 124.2c2.8 1.6 5.1 5.5 5.1 8.6l-0.2 34.8c0 3.1-2.4 4.5-5.1 2.9-2.8-1.6-5.1-5.5-5.1-8.6l0.2-34.8c0-3.3 2.3-4.7 5.1-2.9z"/>
		</g>
</g>
</svg>
